<?xml version="1.0" encoding="utf-8"?>
<!-- Generator: Adobe Illustrator 21.1.0, SVG Export Plug-In . SVG Version: 6.00 Build 0)  -->
<svg version="1.1" id="OUTLINES" xmlns="http://www.w3.org/2000/svg" xmlns:xlink="http://www.w3.org/1999/xlink" x="0px" y="0px"
	 viewBox="0 0 555.3 230.8" style="enable-background:new 0 0 555.3 230.8;" xml:space="preserve">
<style type="text/css">
	.st0{fill:#5393C1;}
	.st1{fill:#FFFFFF;}
	.st2{opacity:0.5;}
	.st3{clip-path:url(#SVGID_2_);fill:#ECE0C7;}
	.st4{fill:#F19F53;}
	.st5{fill:#6A737B;}
	.st6{fill:#0C3C61;}
	.st7{fill:#246B97;}
	.st8{fill:#838A91;}
	.st9{fill:none;stroke:#FFFFFF;stroke-width:7;}
	.st10{fill:none;stroke:#246B97;stroke-width:1.65;}
	.st11{fill:none;stroke:#246B97;stroke-width:1.65;stroke-dasharray:1.9994,4.4071,1.9994,4.4071;}
	.st12{fill:none;stroke:#246B97;stroke-width:1.65;stroke-dasharray:1.9994,4.4071,1.9994,4.4071,1.9994,4.4071;}
	.st13{fill:none;stroke:#246B97;stroke-width:1.65;stroke-dasharray:2.201,4.8516,2.201,4.8516;}
	.st14{fill:none;stroke:#246B97;stroke-width:1.65;stroke-dasharray:2.201,4.8516,2.201,4.8516,2.201,4.8516;}
	.st15{fill:none;stroke:#246B97;stroke-width:1.65;stroke-dasharray:1.9326,4.2599,1.9326,4.2599;}
	.st16{fill:none;stroke:#246B97;stroke-width:1.65;stroke-dasharray:1.9326,4.2599,1.9326,4.2599,1.9326,4.2599;}
	.st17{fill:none;stroke:#246B97;stroke-width:1.65;stroke-dasharray:2.1007,4.6304,2.1007,4.6304;}
	.st18{fill:none;stroke:#246B97;stroke-width:1.65;stroke-dasharray:2.1007,4.6304,2.1007,4.6304,2.1007,4.6304;}
</style>
<polygon class="st0" points="9,0 9,35.9 265.9,35.9 280.9,43.9 297,35.9 546.3,35.9 546.3,0 "/>
<g>
	<path class="st1" d="M28,20.9v-8.1h5.6V14h-4.1v2.2h3.8v1.2h-3.8v2.2h4.1v1.2H28z"/>
	<path class="st1" d="M40.5,15.1l-2.1,2.9l2.2,2.9H39l-1.4-2.1l-1.4,2.1h-1.7l2.2-2.9l-2.1-2.9h1.8l1.3,2l1.3-2H40.5z"/>
	<path class="st1" d="M44.8,20.9v-0.7C44.4,20.9,43.4,21,43,21c-0.7,0-1.9-0.5-1.9-1.7c0-1.3,1.4-2.1,3.7-2.3v-0.1
		c0-1.4-2.1-0.8-2.9-0.4l-0.4-0.9c0,0,0.9-0.6,2.2-0.6c0.5,0,0.9,0,1.3,0.2c0.6,0.2,1.3,0.7,1.3,1.7v4H44.8z M44.8,18.9V18
		c-1.3,0.1-2.3,0.6-2.2,1.2c0,0.5,0.4,0.7,0.9,0.7C43.7,19.9,44.8,19.8,44.8,18.9z"/>
	<path class="st1" d="M51.2,17.3c0-0.6-0.2-1.2-0.9-1.2c-0.4,0-1,0.3-1,1.5v3.3h-1.5v-5.8h1.5v0.8c0.4-0.9,1.2-0.9,1.6-0.9
		c0.4,0,1.3,0.2,1.6,0.9c0.4-0.7,0.9-0.9,1.7-0.9c1.1,0,2.1,0.5,2.1,2.4v3.6h-1.5v-3.4c0-0.9-0.2-1.4-0.9-1.4c-0.2,0-1,0.1-1,1.2
		v3.6h-1.5V17.3z"/>
	<path class="st1" d="M59.2,23.2h-1.5v-8.1h1.5v0.7c0.4-0.7,1.2-0.8,1.7-0.8c1.4,0,2.4,1,2.4,3c0,2.1-1.1,3.1-2.6,3.1
		c-0.4,0-1.2-0.2-1.5-0.8V23.2z M61.7,18c0-0.9-0.3-1.9-1.2-1.9c-0.5,0-1.3,0.1-1.3,1v1.7c0,0.8,0.9,1,1.1,1
		C61.4,19.9,61.7,19,61.7,18z"/>
	<path class="st1" d="M64.4,12.8H66v8.1h-1.5V12.8z"/>
	<path class="st1" d="M67.1,18c0-1.8,1.1-3.1,2.9-3.1c1.8,0,2.9,1.1,2.9,3c0,0.1,0,0.4,0,0.6h-4.2c0.1,0.8,0.7,1.4,1.6,1.4
		c0.2,0,0.9,0,1.9-0.4l0.3,1C72,20.7,71.2,21,70.1,21C68.4,21,67.1,19.9,67.1,18z M68.7,17.4h2.7c0-0.9-0.7-1.3-1.4-1.3
		C69.3,16.1,68.7,16.7,68.7,17.4z"/>
	<path class="st1" d="M73.9,15.1h1.6v1.4h-1.6V15.1z M73.9,19.5h1.6v1.4h-1.6V19.5z"/>
</g>
<g>
	<path class="st1" d="M80.2,20.9v-8.1h5.4V14h-3.8v2.2h3.5v1.2h-3.5v3.5L80.2,20.9z"/>
	<path class="st1" d="M89,14.9c1.8,0,2.9,1.2,2.9,3.1c0,1.9-1.1,3.1-2.9,3.1c-1.8,0-2.9-1.2-2.9-3.1C86.1,16.1,87.2,14.9,89,14.9z
		 M89,16.1c-0.9,0-1.4,0.9-1.4,1.9s0.5,1.9,1.4,1.9c0.9,0,1.4-1,1.4-1.9C90.4,17,89.9,16.1,89,16.1z"/>
	<path class="st1" d="M96.6,16.2h-0.6c-0.9,0-1.3,0.6-1.3,1.4v3.3h-1.5v-5.8h1.5V16c0.4-0.9,1.1-1,1.5-1h0.5V16.2z"/>
	<path class="st1" d="M104,20.9v-0.7c-0.4,0.7-1.4,0.8-1.8,0.8c-0.7,0-1.9-0.5-1.9-1.7c0-1.3,1.4-2.1,3.7-2.3v-0.1
		c0-1.4-2.1-0.8-2.9-0.4l-0.4-0.9c0,0,0.9-0.6,2.2-0.6c0.5,0,0.9,0,1.3,0.2c0.6,0.2,1.3,0.7,1.3,1.7v4H104z M104.1,18.9V18
		c-1.3,0.1-2.3,0.6-2.2,1.2c0,0.5,0.4,0.7,0.9,0.7C103,19.9,104.1,19.8,104.1,18.9z"/>
	<path class="st1" d="M111.9,15.7c0.3-0.7,1-0.8,1.4-0.8c1.5,0,2.7,1,2.7,3.1s-1.1,3.1-2.5,3.1c-0.1,0-1.2-0.1-1.6-0.8v0.7h-1.5
		v-8.1h1.5V15.7z M111.9,17.2v1.6c0,1,0.8,1.1,1.3,1.1c0.9,0,1.2-0.9,1.2-1.9c0-1-0.3-1.9-1.4-1.9C112.7,16.1,111.9,16.3,111.9,17.2
		z"/>
	<path class="st1" d="M117.1,15.1h1.5v3.4c0,0.8,0.2,1.4,0.9,1.4c0.2,0,1.3-0.1,1.3-1.2v-3.6h1.5v5.8h-1.5v-0.7
		c-0.5,0.8-1.6,0.8-1.7,0.8c-1.1,0-2.2-0.6-2.2-2.6V15.1z"/>
	<path class="st1" d="M127,19.4c0.2-0.4-0.1-0.5-0.2-0.5c0,0,0,0-1.8-0.7c-1-0.4-1.3-1-1.3-1.5c0-1.2,1.1-1.8,2.3-1.8
		c0.9,0,1.7,0.3,2.3,0.7l-0.6,1c-0.5-0.3-1.1-0.7-1.7-0.7c-0.5,0-0.8,0.3-0.9,0.6c0,0.4,0.3,0.4,0.9,0.7c0.3,0.1,0.7,0.3,1.2,0.4
		c0.9,0.4,1.2,1,1.2,1.5c0,0.3-0.1,0.6-0.2,0.8c-0.3,0.7-1.1,1-2.2,1c-0.4,0-0.9-0.1-1.3-0.2c-0.4-0.1-0.9-0.4-1.3-0.7l0.6-1
		c0.5,0.5,1.2,0.8,2,0.8C126.5,19.8,126.9,19.7,127,19.4z"/>
	<path class="st1" d="M129.6,12.8h1.5v1.4h-1.5V12.8z M129.6,15.1h1.5v5.8h-1.5V15.1z"/>
	<path class="st1" d="M137.9,20.9h-1.5v-3.4c0-0.9-0.2-1.4-0.9-1.4c-0.3,0-1.3,0.2-1.3,1.4v3.4h-1.5v-5.8h1.5V16
		c0.5-0.9,1.1-1,1.9-1c1.1,0,2,0.6,2,2.6V20.9z"/>
	<path class="st1" d="M139,18c0-1.8,1.1-3.1,2.9-3.1c1.8,0,2.9,1.1,2.9,3c0,0.1,0,0.4,0,0.6h-4.2c0.1,0.8,0.7,1.4,1.6,1.4
		c0.2,0,0.9,0,1.9-0.4l0.3,1c-0.4,0.3-1.3,0.6-2.4,0.6C140.4,21,139,19.9,139,18z M140.6,17.4h2.7c0-0.9-0.7-1.3-1.4-1.3
		C141.2,16.1,140.6,16.7,140.6,17.4z"/>
	<path class="st1" d="M149,19.4c0.2-0.4-0.1-0.5-0.2-0.5c0,0,0,0-1.8-0.7c-1-0.4-1.3-1-1.3-1.5c0-1.2,1.1-1.8,2.3-1.8
		c0.9,0,1.7,0.3,2.3,0.7l-0.6,1c-0.5-0.3-1.1-0.7-1.7-0.7c-0.5,0-0.8,0.3-0.9,0.6c0,0.4,0.3,0.4,0.9,0.7c0.3,0.1,0.7,0.3,1.2,0.4
		c0.9,0.4,1.2,1,1.2,1.5c0,0.3-0.1,0.6-0.2,0.8c-0.3,0.7-1.1,1-2.2,1c-0.4,0-0.9-0.1-1.3-0.2c-0.4-0.1-0.9-0.4-1.3-0.7l0.6-1
		c0.5,0.5,1.2,0.8,2,0.8C148.6,19.8,148.9,19.7,149,19.4z"/>
	<path class="st1" d="M154.7,19.4c0.2-0.4-0.1-0.5-0.2-0.5c0,0,0,0-1.8-0.7c-1-0.4-1.3-1-1.3-1.5c0-1.2,1.1-1.8,2.3-1.8
		c0.9,0,1.7,0.3,2.3,0.7l-0.6,1c-0.5-0.3-1.1-0.7-1.7-0.7c-0.5,0-0.8,0.3-0.9,0.6c0,0.4,0.3,0.4,0.9,0.7c0.3,0.1,0.7,0.3,1.2,0.4
		c0.9,0.4,1.2,1,1.2,1.5c0,0.3-0.1,0.6-0.2,0.8c-0.3,0.7-1.1,1-2.2,1c-0.4,0-0.9-0.1-1.3-0.2c-0.4-0.1-0.9-0.4-1.3-0.7l0.6-1
		c0.5,0.5,1.2,0.8,2,0.8C154.3,19.8,154.6,19.7,154.7,19.4z"/>
	<path class="st1" d="M160.7,12.8h1.5v8.1h-1.5V12.8z"/>
	<path class="st1" d="M166.3,14.9c1.8,0,2.9,1.2,2.9,3.1c0,1.9-1.1,3.1-2.9,3.1c-1.8,0-2.9-1.2-2.9-3.1
		C163.4,16.1,164.5,14.9,166.3,14.9z M166.3,16.1c-0.9,0-1.4,0.9-1.4,1.9s0.5,1.9,1.4,1.9c0.9,0,1.4-1,1.4-1.9
		C167.7,17,167.2,16.1,166.3,16.1z"/>
	<path class="st1" d="M172.9,14.9c1.8,0,2.9,1.2,2.9,3.1c0,1.9-1.1,3.1-2.9,3.1c-1.8,0-2.9-1.2-2.9-3.1
		C170,16.1,171.2,14.9,172.9,14.9z M172.9,16.1c-0.9,0-1.4,0.9-1.4,1.9s0.5,1.9,1.4,1.9c0.9,0,1.4-1,1.4-1.9
		C174.3,17,173.9,16.1,172.9,16.1z"/>
	<path class="st1" d="M182.5,20.9h-1.7l-1.8-2.7l-0.3,0.3v2.4h-1.5v-8.1h1.5v4.1l1.7-1.8h1.9l-2.2,2.2L182.5,20.9z"/>
	<path class="st1" d="M183.3,12.8h1.5v1.4h-1.5V12.8z M183.3,15.1h1.5v5.8h-1.5V15.1z"/>
	<path class="st1" d="M191.6,20.9h-1.5v-3.4c0-0.9-0.2-1.4-0.9-1.4c-0.3,0-1.3,0.2-1.3,1.4v3.4h-1.5v-5.8h1.5V16
		c0.5-0.9,1.1-1,1.9-1c1.1,0,2,0.6,2,2.6V20.9z"/>
	<path class="st1" d="M196.9,20.2c-0.3,0.6-1,0.8-1.5,0.8c-1.2,0-2.6-1-2.6-3.1s1.2-3.1,2.6-3.1c0.1,0,1,0,1.5,0.8v-0.7h1.5v6.2
		c0,1.5-1.4,1.9-2.7,1.9c-0.9,0-1.9-0.3-2.3-0.6l0.3-1c0.8,0.5,3.1,1,3.1-0.5V20.2z M196.9,19v-1.9c0-1-0.9-1.1-1.3-1.1
		c-0.9,0-1.2,1-1.2,1.9c0,1,0.3,1.9,1.4,1.9C196,19.9,196.9,19.8,196.9,19z"/>
	<path class="st1" d="M202.6,16.1v-1h0.9v-1.4h1.5v1.4h1.3v1h-1.3v3c0,0.3,0,0.8,0.5,0.8c0.1,0,0.3,0,0.8-0.2l0.1,1
		c-0.6,0.3-1,0.3-1.1,0.3c-0.4,0-1.8,0-1.8-1.9v-3H202.6z"/>
	<path class="st1" d="M210,14.9c1.8,0,2.9,1.2,2.9,3.1c0,1.9-1.1,3.1-2.9,3.1c-1.8,0-2.9-1.2-2.9-3.1
		C207.1,16.1,208.3,14.9,210,14.9z M210,16.1c-0.9,0-1.4,0.9-1.4,1.9s0.5,1.9,1.4,1.9c0.9,0,1.4-1,1.4-1.9
		C211.5,17,211,16.1,210,16.1z"/>
	<path class="st1" d="M221,16.2h-0.6c-0.9,0-1.3,0.6-1.3,1.4v3.3h-1.5v-5.8h1.5V16c0.4-0.9,1.1-1,1.5-1h0.5V16.2z"/>
	<path class="st1" d="M221.3,18c0-1.8,1.1-3.1,2.9-3.1c1.8,0,2.9,1.1,2.9,3c0,0.1,0,0.4,0,0.6h-4.2c0.1,0.8,0.7,1.4,1.6,1.4
		c0.2,0,0.9,0,1.9-0.4l0.3,1c-0.4,0.3-1.3,0.6-2.4,0.6C222.6,21,221.3,19.9,221.3,18z M222.9,17.4h2.7c0-0.9-0.7-1.3-1.4-1.3
		C223.4,16.1,222.9,16.7,222.9,17.4z"/>
	<path class="st1" d="M228.2,12.8h1.5v8.1h-1.5V12.8z"/>
	<path class="st1" d="M233.7,14.9c1.8,0,2.9,1.2,2.9,3.1c0,1.9-1.1,3.1-2.9,3.1c-1.8,0-2.9-1.2-2.9-3.1
		C230.8,16.1,232,14.9,233.7,14.9z M233.7,16.1c-0.9,0-1.4,0.9-1.4,1.9s0.5,1.9,1.4,1.9c0.9,0,1.4-1,1.4-1.9
		C235.2,17,234.7,16.1,233.7,16.1z"/>
	<path class="st1" d="M240.5,14.9c0.6,0,1.4,0.2,1.9,0.4l-0.3,1.1c-0.8-0.3-1.2-0.3-1.4-0.3c-1.2,0-1.7,0.9-1.7,1.9
		c0,1,0.5,1.9,1.7,1.9c0.2,0,0.6,0,1.4-0.3l0.3,1.1c-0.5,0.3-1.3,0.4-1.9,0.4c-1.9,0-3-1.2-3-3.1C237.5,16.1,238.7,14.9,240.5,14.9z
		"/>
	<path class="st1" d="M246.8,20.9v-0.7c-0.4,0.7-1.4,0.8-1.8,0.8c-0.7,0-1.9-0.5-1.9-1.7c0-1.3,1.4-2.1,3.7-2.3v-0.1
		c0-1.4-2.1-0.8-2.9-0.4l-0.4-0.9c0,0,0.9-0.6,2.2-0.6c0.5,0,0.9,0,1.3,0.2c0.6,0.2,1.3,0.7,1.3,1.7v4H246.8z M246.9,18.9V18
		c-1.3,0.1-2.3,0.6-2.2,1.2c0,0.5,0.4,0.7,0.9,0.7C245.8,19.9,246.9,19.8,246.9,18.9z"/>
	<path class="st1" d="M249.2,16.1v-1h0.9v-1.4h1.5v1.4h1.3v1h-1.3v3c0,0.3,0,0.8,0.5,0.8c0.1,0,0.3,0,0.8-0.2l0.1,1
		c-0.6,0.3-1,0.3-1.1,0.3c-0.4,0-1.8,0-1.8-1.9v-3H249.2z"/>
	<path class="st1" d="M253.7,18c0-1.8,1.1-3.1,2.9-3.1c1.8,0,2.9,1.1,2.9,3c0,0.1,0,0.4,0,0.6h-4.2c0.1,0.8,0.7,1.4,1.6,1.4
		c0.2,0,0.9,0,1.9-0.4l0.3,1c-0.4,0.3-1.3,0.6-2.4,0.6C255,21,253.7,19.9,253.7,18z M255.3,17.4h2.7c0-0.9-0.7-1.3-1.4-1.3
		C255.9,16.1,255.3,16.7,255.3,17.4z"/>
	<path class="st1" d="M265.9,20.9v-1.6c-1.1,0-2.4,0-3.5,0v-1.1c0.9-2,2-3.4,3.6-5.1h1.5v5.1h1.1v1.1h-1.1v1.6H265.9z M265.9,18.2
		v-3.2c-0.9,0.9-1.9,2.4-2.2,3.2H265.9z"/>
	<path class="st1" d="M269.5,17c0-2.5,1.2-4,3-4c1.9,0,3.1,1.5,3.1,4c0,2.5-1.2,4.1-3.1,4.1C270.6,21,269.5,19.5,269.5,17z
		 M270.9,17c0,1.5,0.5,2.9,1.5,2.9c1.1,0,1.6-1.4,1.6-2.9c0-1.5-0.5-2.9-1.6-2.9C271.5,14.1,270.9,15.5,270.9,17z"/>
	<path class="st1" d="M276.6,17c0-2.5,1.2-4,3-4c1.9,0,3.1,1.5,3.1,4c0,2.5-1.2,4.1-3.1,4.1C277.7,21,276.6,19.5,276.6,17z M278,17
		c0,1.5,0.5,2.9,1.5,2.9c1.1,0,1.6-1.4,1.6-2.9c0-1.5-0.5-2.9-1.6-2.9C278.6,14.1,278,15.5,278,17z"/>
	<path class="st1" d="M286.9,18c0-1.8,1.1-3.1,2.9-3.1c1.8,0,2.9,1.1,2.9,3c0,0.1,0,0.4,0,0.6h-4.2c0.1,0.8,0.7,1.4,1.6,1.4
		c0.2,0,0.9,0,1.9-0.4l0.3,1c-0.4,0.3-1.3,0.6-2.4,0.6C288.2,21,286.9,19.9,286.9,18z M288.5,17.4h2.6c0-0.9-0.7-1.3-1.4-1.3
		C289.1,16.1,288.5,16.7,288.5,17.4z"/>
	<path class="st1" d="M297.3,17.3c0-0.6-0.2-1.2-0.9-1.2c-0.4,0-1,0.3-1,1.5v3.3h-1.5v-5.8h1.5v0.8c0.4-0.9,1.2-0.9,1.6-0.9
		c0.4,0,1.3,0.2,1.6,0.9c0.4-0.7,0.9-0.9,1.7-0.9c1.1,0,2.1,0.5,2.1,2.4v3.6h-1.5v-3.4c0-0.9-0.2-1.4-0.9-1.4c-0.2,0-1,0.1-1,1.2
		v3.6h-1.5V17.3z"/>
	<path class="st1" d="M305.2,23.2h-1.5v-8.1h1.5v0.7c0.4-0.7,1.2-0.8,1.7-0.8c1.4,0,2.4,1,2.4,3c0,2.1-1.1,3.1-2.6,3.1
		c-0.4,0-1.2-0.2-1.5-0.8V23.2z M307.7,18c0-0.9-0.3-1.9-1.2-1.9c-0.5,0-1.3,0.1-1.3,1v1.7c0,0.8,0.9,1,1.1,1
		C307.4,19.9,307.7,19,307.7,18z"/>
	<path class="st1" d="M310.4,12.8h1.5v8.1h-1.5V12.8z"/>
	<path class="st1" d="M316,14.9c1.8,0,2.9,1.2,2.9,3.1c0,1.9-1.1,3.1-2.9,3.1c-1.8,0-2.9-1.2-2.9-3.1
		C313.1,16.1,314.3,14.9,316,14.9z M316,16.1c-0.9,0-1.4,0.9-1.4,1.9s0.5,1.9,1.4,1.9c0.9,0,1.4-1,1.4-1.9
		C317.4,17,316.9,16.1,316,16.1z"/>
	<path class="st1" d="M320.4,21.8c0.3,0.1,0.8,0.5,1.1-0.1l0.4-1c-0.4-1-0.9-2-2.5-5.7h1.6l1.7,3.9c0.5-1.3,1.1-2.6,1.6-3.9h1.6
		l-3,7.1c-0.4,0.9-1.3,1-1.6,1c-0.3,0-0.6-0.1-0.9-0.2L320.4,21.8z"/>
	<path class="st1" d="M326.2,18c0-1.8,1.1-3.1,2.9-3.1c1.8,0,2.9,1.1,2.9,3c0,0.1,0,0.4,0,0.6h-4.2c0.1,0.8,0.7,1.4,1.6,1.4
		c0.2,0,0.9,0,1.9-0.4l0.3,1c-0.4,0.3-1.3,0.6-2.4,0.6C327.5,21,326.2,19.9,326.2,18z M327.8,17.4h2.7c0-0.9-0.7-1.3-1.4-1.3
		S327.8,16.7,327.8,17.4z"/>
	<path class="st1" d="M332.8,18c0-1.8,1.1-3.1,2.9-3.1c1.8,0,2.9,1.1,2.9,3c0,0.1,0,0.4,0,0.6h-4.2c0.1,0.8,0.7,1.4,1.6,1.4
		c0.2,0,0.9,0,1.9-0.4l0.3,1c-0.4,0.3-1.3,0.6-2.4,0.6C334.1,21,332.8,19.9,332.8,18z M334.4,17.4h2.7c0-0.9-0.7-1.3-1.4-1.3
		S334.4,16.7,334.4,17.4z"/>
	<path class="st1" d="M342.8,19.4c0.2-0.4-0.1-0.5-0.2-0.5c0,0,0,0-1.8-0.7c-1-0.4-1.3-1-1.3-1.5c0-1.2,1.1-1.8,2.3-1.8
		c0.9,0,1.7,0.3,2.3,0.7l-0.6,1c-0.5-0.3-1.1-0.7-1.7-0.7c-0.5,0-0.8,0.3-0.9,0.6c0,0.4,0.3,0.4,0.9,0.7c0.3,0.1,0.7,0.3,1.2,0.4
		c0.9,0.4,1.2,1,1.2,1.5c0,0.3-0.1,0.6-0.2,0.8c-0.3,0.7-1.1,1-2.2,1c-0.4,0-0.9-0.1-1.3-0.2c-0.4-0.1-0.9-0.4-1.3-0.7l0.6-1
		c0.5,0.5,1.2,0.8,2,0.8C342.4,19.8,342.7,19.7,342.8,19.4z"/>
	<path class="st1" d="M348.7,12.8h1.5v1.4h-1.5V12.8z M348.7,15.1h1.5v5.8h-1.5V15.1z"/>
	<path class="st1" d="M357,20.9h-1.5v-3.4c0-0.9-0.2-1.4-0.9-1.4c-0.3,0-1.3,0.2-1.3,1.4v3.4h-1.5v-5.8h1.5V16c0.5-0.9,1.1-1,1.9-1
		c1.1,0,2,0.6,2,2.6V20.9z"/>
	<path class="st1" d="M357.9,16.1v-1h0.9v-1.4h1.5v1.4h1.3v1h-1.3v3c0,0.3,0,0.8,0.5,0.8c0.1,0,0.3,0,0.8-0.2l0.1,1
		c-0.6,0.3-1,0.3-1.1,0.3c-0.4,0-1.8,0-1.8-1.9v-3H357.9z"/>
	<path class="st1" d="M365.3,14.9c1.8,0,2.9,1.2,2.9,3.1c0,1.9-1.1,3.1-2.9,3.1c-1.8,0-2.9-1.2-2.9-3.1
		C362.4,16.1,363.6,14.9,365.3,14.9z M365.3,16.1c-0.9,0-1.4,0.9-1.4,1.9s0.5,1.9,1.4,1.9c0.9,0,1.4-1,1.4-1.9
		C366.7,17,366.2,16.1,365.3,16.1z"/>
	<path class="st1" d="M372.7,18.7c0-0.6,0.3-1.7,1.6-1.9c-1-0.3-1.4-1.1-1.4-1.8c0-1.3,1.1-1.9,2-2c0.2,0,0.3,0,0.6,0s0.6,0,0.6,0h0
		c1,0.2,2,0.7,2,2c0,0.7-0.4,1.5-1.4,1.8c1.4,0.2,1.6,1.4,1.6,1.9c0,1.2-0.9,2.3-2.9,2.3S372.7,19.9,372.7,18.7z M377,18.7
		c0-0.6-0.5-1.4-1.4-1.4c-0.9,0-1.4,0.7-1.4,1.4c0,0.6,0.5,1.2,1.4,1.2S377,19.3,377,18.7z M376.8,15.1c0-0.5-0.4-1.1-1.2-1.1
		c-0.8,0-1.2,0.6-1.2,1.1c0,0.7,0.5,1.1,1.2,1.1C376.3,16.2,376.8,15.8,376.8,15.1z"/>
	<path class="st1" d="M379.6,17c0-2.5,1.2-4,3-4c1.9,0,3.1,1.5,3.1,4c0,2.5-1.2,4.1-3.1,4.1C380.7,21,379.6,19.5,379.6,17z M381,17
		c0,1.5,0.5,2.9,1.5,2.9c1.1,0,1.6-1.4,1.6-2.9c0-1.5-0.5-2.9-1.6-2.9C381.6,14.1,381,15.5,381,17z"/>
	<path class="st1" d="M387.8,19.5h1.6l-1.5,2.3h-1.3L387.8,19.5z"/>
	<path class="st1" d="M390.4,17c0-2.5,1.2-4,3-4c1.9,0,3.1,1.5,3.1,4c0,2.5-1.2,4.1-3.1,4.1C391.6,21,390.4,19.5,390.4,17z
		 M391.9,17c0,1.5,0.5,2.9,1.5,2.9c1.1,0,1.6-1.4,1.6-2.9c0-1.5-0.5-2.9-1.6-2.9C392.4,14.1,391.9,15.5,391.9,17z"/>
	<path class="st1" d="M397.5,17c0-2.5,1.2-4,3-4c1.9,0,3.1,1.5,3.1,4c0,2.5-1.2,4.1-3.1,4.1C398.6,21,397.5,19.5,397.5,17z
		 M398.9,17c0,1.5,0.5,2.9,1.5,2.9c1.1,0,1.6-1.4,1.6-2.9c0-1.5-0.5-2.9-1.6-2.9C399.5,14.1,398.9,15.5,398.9,17z"/>
	<path class="st1" d="M404.6,17c0-2.5,1.2-4,3-4c1.9,0,3.1,1.5,3.1,4c0,2.5-1.2,4.1-3.1,4.1C405.7,21,404.6,19.5,404.6,17z M406,17
		c0,1.5,0.5,2.9,1.5,2.9c1.1,0,1.6-1.4,1.6-2.9c0-1.5-0.5-2.9-1.6-2.9C406.6,14.1,406,15.5,406,17z"/>
	<path class="st1" d="M420.8,13.6l-0.6,1.1c-0.7-0.6-1.6-0.9-2.4-0.9c-0.7,0-1.2,0.4-1.2,0.9c-0.1,0.6,0.5,0.9,0.9,1l2.1,0.8
		c1.2,0.5,1.6,1.3,1.6,2c0,1.6-1.5,2.4-3,2.4c-0.5,0-1.1,0-1.7-0.3c-0.5-0.2-1.1-0.5-1.6-0.9l0.6-1.1c0.7,0.6,1.8,1,2.7,1
		c0.6,0,1.1-0.3,1.4-0.7c0.2-0.5-0.1-1-0.6-1.2c-0.8-0.3-1.5-0.6-2.2-0.9c-1.2-0.5-1.7-1.3-1.7-2c0-1.5,1.5-2.3,2.9-2.3
		c0.5,0,1,0.1,1.5,0.2C420.1,13.1,420.5,13.4,420.8,13.6z"/>
	<path class="st1" d="M422.3,20.9v-8.1h5.4V14h-3.8v2.2h3.5v1.2h-3.5v3.5L422.3,20.9z"/>
	<path class="st1" d="M434.8,14.9c1.8,0,2.9,1.2,2.9,3.1c0,1.9-1.1,3.1-2.9,3.1c-1.8,0-2.9-1.2-2.9-3.1
		C431.9,16.1,433,14.9,434.8,14.9z M434.8,16.1c-0.9,0-1.4,0.9-1.4,1.9s0.5,1.9,1.4,1.9c0.9,0,1.4-1,1.4-1.9
		C436.2,17,435.7,16.1,434.8,16.1z"/>
	<path class="st1" d="M439,15.1v-0.5c0-2,1.5-1.9,1.8-1.9c0.1,0,0.6,0,1.1,0.3l-0.2,0.9c-0.4-0.2-0.7-0.2-0.8-0.2
		c-0.4,0-0.5,0.4-0.5,0.7v0.7h1.1v1h-1.1v4.8H439v-4.8h-0.7v-1H439z"/>
	<path class="st1" d="M448.3,14.9c1.8,0,2.9,1.2,2.9,3.1c0,1.9-1.1,3.1-2.9,3.1c-1.8,0-2.9-1.2-2.9-3.1
		C445.4,16.1,446.5,14.9,448.3,14.9z M448.3,16.1c-0.9,0-1.4,0.9-1.4,1.9s0.5,1.9,1.4,1.9c0.9,0,1.4-1,1.4-1.9
		C449.7,17,449.2,16.1,448.3,16.1z"/>
	<path class="st1" d="M452.5,15.1v-0.5c0-2,1.5-1.9,1.8-1.9c0.1,0,0.6,0,1.1,0.3l-0.2,0.9c-0.4-0.2-0.7-0.2-0.8-0.2
		c-0.4,0-0.5,0.4-0.5,0.7v0.7h2v-0.5c0-2,1.5-1.9,1.8-1.9c0.1,0,0.6,0,1.1,0.3l-0.2,0.9c-0.4-0.2-0.7-0.2-0.8-0.2
		c-0.4,0-0.5,0.4-0.5,0.7v0.7h3.4v5.8h-1.5v-4.8h-1.9v4.8H456v-4.8h-2v4.8h-1.5l0-4.8h-0.7v-1H452.5z"/>
	<path class="st1" d="M465.1,14.9c0.6,0,1.4,0.2,1.9,0.4l-0.3,1.1c-0.8-0.3-1.2-0.3-1.4-0.3c-1.2,0-1.7,0.9-1.7,1.9
		c0,1,0.5,1.9,1.7,1.9c0.2,0,0.6,0,1.4-0.3l0.3,1.1c-0.5,0.3-1.3,0.4-1.9,0.4c-1.9,0-3-1.2-3-3.1C462,16.1,463.2,14.9,465.1,14.9z"
		/>
	<path class="st1" d="M467.8,18c0-1.8,1.1-3.1,2.9-3.1c1.8,0,2.9,1.1,2.9,3c0,0.1,0,0.4,0,0.6h-4.2c0.1,0.8,0.7,1.4,1.6,1.4
		c0.2,0,0.9,0,1.9-0.4l0.3,1c-0.4,0.3-1.3,0.6-2.4,0.6C469.1,21,467.8,19.9,467.8,18z M469.4,17.4h2.7c0-0.9-0.7-1.3-1.4-1.3
		C470,16.1,469.4,16.7,469.4,17.4z"/>
	<path class="st1" d="M481.1,19.4c0.2-0.4-0.1-0.5-0.2-0.5c0,0,0,0-1.8-0.7c-1-0.4-1.3-1-1.3-1.5c0-1.2,1.1-1.8,2.3-1.8
		c0.9,0,1.7,0.3,2.3,0.7l-0.6,1c-0.5-0.3-1.1-0.7-1.7-0.7c-0.5,0-0.8,0.3-0.9,0.6c0,0.4,0.3,0.4,0.9,0.7c0.3,0.1,0.7,0.3,1.2,0.4
		c0.9,0.4,1.2,1,1.2,1.5c0,0.3-0.1,0.6-0.2,0.8c-0.3,0.7-1.1,1-2.2,1c-0.4,0-0.9-0.1-1.3-0.2c-0.4-0.1-0.9-0.4-1.3-0.7l0.6-1
		c0.5,0.5,1.2,0.8,2,0.8C480.7,19.8,481,19.7,481.1,19.4z"/>
	<path class="st1" d="M485.3,23.2h-1.5v-8.1h1.5v0.7c0.4-0.7,1.2-0.8,1.7-0.8c1.4,0,2.4,1,2.4,3c0,2.1-1.1,3.1-2.6,3.1
		c-0.4,0-1.2-0.2-1.5-0.8V23.2z M487.8,18c0-0.9-0.3-1.9-1.2-1.9c-0.5,0-1.3,0.1-1.3,1v1.7c0,0.8,0.9,1,1.1,1
		C487.5,19.9,487.8,19,487.8,18z"/>
	<path class="st1" d="M493.8,20.9v-0.7c-0.4,0.7-1.4,0.8-1.8,0.8c-0.7,0-1.9-0.5-1.9-1.7c0-1.3,1.4-2.1,3.7-2.3v-0.1
		c0-1.4-2.1-0.8-2.9-0.4l-0.4-0.9c0,0,0.9-0.6,2.2-0.6c0.5,0,0.9,0,1.3,0.2c0.6,0.2,1.3,0.7,1.3,1.7v4H493.8z M493.8,18.9V18
		c-1.3,0.1-2.3,0.6-2.2,1.2c0,0.5,0.4,0.7,0.9,0.7C492.7,19.9,493.8,19.8,493.8,18.9z"/>
	<path class="st1" d="M499.5,14.9c0.6,0,1.4,0.2,1.9,0.4l-0.3,1.1c-0.8-0.3-1.2-0.3-1.4-0.3c-1.2,0-1.7,0.9-1.7,1.9
		c0,1,0.5,1.9,1.7,1.9c0.2,0,0.6,0,1.4-0.3l0.3,1.1c-0.5,0.3-1.3,0.4-1.9,0.4c-1.9,0-3-1.2-3-3.1C496.4,16.1,497.6,14.9,499.5,14.9z
		"/>
	<path class="st1" d="M502.2,18c0-1.8,1.1-3.1,2.9-3.1c1.8,0,2.9,1.1,2.9,3c0,0.1,0,0.4,0,0.6h-4.2c0.1,0.8,0.7,1.4,1.6,1.4
		c0.2,0,0.9,0,1.9-0.4l0.3,1c-0.4,0.3-1.3,0.6-2.4,0.6C503.5,21,502.2,19.9,502.2,18z M503.8,17.4h2.7c0-0.9-0.7-1.3-1.4-1.3
		C504.3,16.1,503.8,16.7,503.8,17.4z"/>
</g>
<g class="st2">
	<g>
		<defs>
			<rect id="SVGID_1_" y="46.1" width="555.3" height="105.4"/>
		</defs>
		<clipPath id="SVGID_2_">
			<use xlink:href="#SVGID_1_"  style="overflow:visible;"/>
		</clipPath>
		<polygon class="st3" points="9,53.1 9,150.5 269.6,150.5 546.3,150.5 546.3,53.1 		"/>
	</g>
</g>
<g>
	<path class="st4" d="M384.6,100.6c-0.4-0.1-0.8-0.1-1.2-0.3c-0.7-0.2-1.6-0.6-2.3-1.3l0.8-1.7c0.8,0.7,2.4,1.5,3.8,1.5
		c0.7,0,1.6-0.3,1.6-1.1c0-0.5-0.4-0.9-0.7-1l-2.9-1.1c-1.7-0.7-2.3-1.8-2.3-2.7c0-1.8,1.3-2.9,3.2-3.1v-1.4h1.7v1.4
		c1.2,0.1,2.1,0.6,3.1,1.3l-0.7,1.6c-1.7-1-2.6-1.1-3.1-1.1c-1.9,0-2.3,1.4-0.8,2.1l2.8,1.1c1.7,0.6,2.2,1.7,2.2,2.7
		c0,2-1.6,3.1-3.5,3.3v1.5h-1.7V100.6z"/>
	<path class="st4" d="M392.7,92.9l2.8-2.8h2v10.3h-2.3v-7.6l-1.3,1.4L392.7,92.9z"/>
	<path class="st4" d="M402.2,92.9l2.8-2.8h2v10.3h-2.3v-7.6l-1.3,1.4L402.2,92.9z"/>
	<path class="st4" d="M411.8,98.4h2.6l-2.3,3.5H410L411.8,98.4z"/>
	<path class="st4" d="M415.9,90.1h7.6v1.5c-2.2,2.8-3.5,5.6-4.5,8.8h-2.6c1.2-3.1,2.7-6.2,4.7-8.5h-5.3V90.1z"/>
	<path class="st4" d="M429.4,95.1c-0.5,0-1.2,0.1-1.6,0.8h-2l0.9-5.8h5.7V92h-4l-0.3,2c2.1-1.4,5.1-0.1,5.1,2.9
		c0,2.7-2.2,3.8-4.2,3.8c-1.5,0-2.7-0.6-3.5-1.5l1-1.6c1,1,2,1.2,2.4,1.2c1.7,0,2.2-1,2.2-1.9C431.1,96.1,430.7,95.1,429.4,95.1z"/>
	<path class="st4" d="M434.8,95.3c0-3.3,1.6-5.4,4.1-5.4c2.6,0,4.1,2.1,4.1,5.4c0,3.3-1.5,5.4-4.1,5.4
		C436.3,100.7,434.8,98.6,434.8,95.3z M437,95.3c0,1.8,0.6,3.6,1.8,3.6c1.2,0,1.8-1.8,1.8-3.6c0-1.8-0.6-3.6-1.8-3.6
		C437.7,91.7,437,93.5,437,95.3z"/>
</g>
<g>
	<path class="st5" d="M387.2,109.2l-2.3,3.1c0.8,1,1.6,2.2,2.4,3.2h-1.5l-1.7-2.5l-1.7,2.5h-1.5l2.4-3.2l-2.3-3.1h1.5l1.6,2.4
		l1.6-2.4H387.2z"/>
	<path class="st5" d="M395.5,115.5v-1.8l-4,0v-1.1c1.3-2.7,2.3-3.7,4-5.6h1.3v5.7h1.2v1h-1.2v1.8L395.5,115.5z M395.5,112.7v-4.1
		c-1,0.9-2.3,2.9-2.8,4.1H395.5z"/>
	<path class="st5" d="M399.1,111.3c0-2.8,1.2-4.4,3.1-4.4c2,0,3.1,1.6,3.1,4.4c0,2.8-1.2,4.4-3.1,4.4
		C400.3,115.6,399.1,114,399.1,111.3z M400.4,111.3c0,1.8,0.5,3.3,1.8,3.3c1.3,0,1.8-1.6,1.8-3.3c0-1.7-0.5-3.4-1.8-3.4
		C400.9,107.9,400.4,109.6,400.4,111.3z"/>
	<path class="st5" d="M406.5,111.3c0-2.8,1.2-4.4,3.1-4.4c2,0,3.1,1.6,3.1,4.4c0,2.8-1.2,4.4-3.1,4.4
		C407.7,115.6,406.5,114,406.5,111.3z M407.8,111.3c0,1.8,0.5,3.3,1.8,3.3c1.3,0,1.8-1.6,1.8-3.3c0-1.7-0.5-3.4-1.8-3.4
		C408.3,107.9,407.8,109.6,407.8,111.3z"/>
	<path class="st5" d="M419.1,116c0,2.1-1.4,2-1.8,2c-0.2,0-0.6,0-1.1-0.3l0.2-0.9c0.5,0.1,0.5,0.2,0.7,0.2c0.7,0,0.7-0.6,0.7-1.1
		v-6.8h1.3V116z M417.8,106.7h1.4v1.2h-1.4V106.7z"/>
	<path class="st5" d="M423.5,109c1.9,0,3.1,1.2,3.1,3.3s-1.2,3.3-3.1,3.3c-1.9,0-3.1-1.2-3.1-3.3S421.6,109,423.5,109z M423.5,110
		c-1.2,0-1.8,1.1-1.8,2.3c0,1.1,0.6,2.3,1.8,2.3c1.1,0,1.8-1.1,1.8-2.3C425.2,111.2,424.6,110,423.5,110z"/>
	<path class="st5" d="M429.2,109.9c0.5-0.8,1.3-0.9,1.8-0.9c1.6,0,2.8,1.1,2.8,3.3c0,2.2-1.2,3.3-2.8,3.3c-0.2,0-1.6-0.1-1.8-0.9
		v0.7h-1.3v-8.8h1.4V109.9z M429.2,111.2v2.1c0,1.2,1.1,1.3,1.7,1.3c1.2,0,1.6-1.1,1.6-2.2c0-1.2-0.4-2.2-1.8-2.2
		C430.3,110.1,429.2,110.3,429.2,111.2z"/>
	<path class="st5" d="M437.9,113.2l-1.9-0.7c-1-0.4-1.3-1.1-1.3-1.6c0-1.2,0.9-1.9,2.3-1.9c0.4,0,0.8,0.1,1.3,0.2
		c0.4,0.1,0.6,0.3,1,0.5l-0.5,0.9c-0.5-0.3-1.1-0.5-1.7-0.5c-0.6,0-1,0.3-1.1,0.7c0,0.5,0.2,0.6,1,0.9c0.4,0.1,0.8,0.3,1.3,0.5
		c0.9,0.4,1.2,1,1.2,1.6c0,0.3-0.1,0.6-0.2,0.8c-0.3,0.7-1.1,1.1-2.2,1.1c-0.4,0-0.9-0.1-1.4-0.2c-0.4-0.1-0.9-0.4-1.3-0.7l0.5-0.9
		c0.6,0.5,1.3,0.7,2.1,0.7c0.5,0,0.9-0.2,1.1-0.5C438.5,113.5,438.1,113.3,437.9,113.2z"/>
	<path class="st5" d="M450.1,109.2l-2.3,3.1c0.8,1,1.6,2.2,2.4,3.2h-1.5L447,113l-1.7,2.5h-1.5l2.4-3.2l-2.3-3.1h1.5l1.6,2.4
		l1.6-2.4H450.1z"/>
	<path class="st5" d="M455.9,108.9l1.9-1.9h1.3v8.5h-1.4v-6.9l-1.2,1.1L455.9,108.9z"/>
	<path class="st5" d="M462,111.3c0-2.8,1.2-4.4,3.1-4.4c2,0,3.1,1.6,3.1,4.4c0,2.8-1.2,4.4-3.1,4.4C463.2,115.6,462,114,462,111.3z
		 M463.3,111.3c0,1.8,0.5,3.3,1.8,3.3c1.3,0,1.8-1.6,1.8-3.3c0-1.7-0.5-3.4-1.8-3.4C463.9,107.9,463.3,109.6,463.3,111.3z"/>
	<path class="st5" d="M473.7,116.9c0.3,0.1,0.5,0.1,0.7,0.1c0.5,0,0.6-0.4,0.6-0.4l0.4-1.1l-2.8-6.3h1.4l2,4.8l2-4.8h1.4l-3.3,7.9
		c-0.4,0.9-1.3,1-1.7,1c-0.3,0-0.6-0.1-0.9-0.2L473.7,116.9z"/>
	<path class="st5" d="M479.8,112.3c0-1.9,1.1-3.3,3-3.3c1.9,0,3,1.2,3,3.2c0,0.2,0,0.4,0,0.6h-4.8c0.1,1.1,0.8,1.8,2,1.8
		c0.3,0,1.2,0,2-0.4l0.4,0.9c-0.4,0.2-1.3,0.5-2.5,0.5C481.2,115.6,479.8,114.4,479.8,112.3z M481.2,111.8h3.4
		c-0.1-1.1-0.8-1.7-1.7-1.7C481.9,110.1,481.2,110.9,481.2,111.8z"/>
	<path class="st5" d="M490.9,115.5v-0.7c-0.5,0.7-1.5,0.8-2,0.8c-0.9,0-2.2-0.5-2.2-2c0-1.6,1.7-2.1,4.2-2.3v-0.3c0-0.4-0.3-1-1.5-1
		c-0.5,0-1,0.1-1.4,0.2c-0.2,0.1-0.4,0.2-0.6,0.2l-0.4-0.8c0,0,0.9-0.6,2.3-0.7c0.5,0,1,0,1.4,0.2c0.7,0.2,1.4,0.7,1.4,1.8v4.4
		H490.9z M490.9,113.2v-0.9c-1.7,0.1-2.9,0.6-2.9,1.3c0,0.6,0.5,1,1.1,1C489.5,114.6,490.9,114.5,490.9,113.2z"/>
	<path class="st5" d="M497.2,110.2h-0.4c-1.1,0-1.6,0.6-1.6,1.4v3.8h-1.3v-6.3h1.3v1.1c0.2-0.9,1.1-1.2,1.7-1.2h0.3V110.2z"/>
	<path class="st5" d="M501,113.2l-1.9-0.7c-1-0.4-1.3-1.1-1.3-1.6c0-1.2,0.9-1.9,2.3-1.9c0.4,0,0.8,0.1,1.3,0.2
		c0.4,0.1,0.6,0.3,1,0.5l-0.5,0.9c-0.5-0.3-1.1-0.5-1.7-0.5c-0.6,0-1,0.3-1.1,0.7c0,0.5,0.2,0.6,1,0.9c0.4,0.1,0.8,0.3,1.3,0.5
		c0.9,0.4,1.2,1,1.2,1.6c0,0.3-0.1,0.6-0.2,0.8c-0.3,0.7-1.1,1.1-2.2,1.1c-0.4,0-0.9-0.1-1.4-0.2c-0.4-0.1-0.9-0.4-1.3-0.7l0.5-0.9
		c0.6,0.5,1.3,0.7,2.1,0.7c0.5,0,0.9-0.2,1.1-0.5C501.6,113.5,501.2,113.3,501,113.2z"/>
</g>
<g>
	<path class="st6" d="M73.8,82.8l0.1-0.8h2.2l-0.5,3.2c-0.5,0.3-1.6,0.5-2.4,0.5c-2,0-3.2-1.3-3.2-3c0-2.1,1.7-3.9,4.1-3.9
		c0.7,0,1.4,0.1,2.1,0.5L75.9,80c-0.4-0.3-1.1-0.5-1.5-0.5c-2.3,0-3.4,1.6-3.4,3c0,1.2,0.7,2.4,2.5,2.4c0.4,0,1-0.1,1.4-0.2l0.3-1.9
		H73.8z"/>
	<path class="st6" d="M81.9,79.5l-0.4,0.6c-0.6-0.6-2.8-1.1-3.3,0.2c-0.2,0.7,0.4,0.9,0.9,1.1l1.6,0.7c1.4,0.6,1.1,1.8,0.7,2.5
		c-0.6,1-2.1,1.4-3.7,0.9c-0.3-0.1-0.8-0.4-1.1-0.7l0.5-0.6c0.7,0.7,2.9,1.4,3.7,0c0.3-0.6-0.1-1-0.5-1.2l-1.8-0.7
		c-1.1-0.5-1.2-1.3-1-1.9c0.4-1.2,1.9-1.9,3.7-1.3C81.4,79.1,81.7,79.3,81.9,79.5z"/>
	<path class="st6" d="M86.2,82.8l0.1-0.8h2.2L88,85.3c-0.5,0.3-1.6,0.5-2.4,0.5c-2,0-3.2-1.3-3.2-3c0-2.1,1.7-3.9,4.1-3.9
		c0.7,0,1.4,0.1,2.1,0.5L88.3,80c-0.4-0.3-1.1-0.5-1.5-0.5c-2.3,0-3.4,1.6-3.4,3c0,1.2,0.7,2.4,2.5,2.4c0.4,0,1-0.1,1.4-0.2l0.3-1.9
		H86.2z"/>
	<path class="st6" d="M88.8,85.6l0.1-0.8l4.9-5.1h-4l0.1-0.8H95l-0.1,0.8l-4.9,5.1h4l-0.1,0.8H88.8z"/>
	<path class="st6" d="M98.4,80.8h0.9l-0.7,4.8h-0.9L98.4,80.8z M98.7,78.9h0.9l-0.1,0.9h-0.9L98.7,78.9z"/>
	<path class="st6" d="M103.9,85.6h-0.9l0.4-2.8c0.1-0.8-0.1-1.4-0.9-1.4c-0.4,0-1.4,0.2-1.6,1.4l-0.4,2.9h-0.9l0.7-4.8h0.8l-0.1,0.9
		c0.4-0.8,1.2-1,1.6-1c1.1,0,1.8,0.5,1.6,2.1L103.9,85.6z"/>
	<path class="st6" d="M108,80.7c0.5,0,1.1,0.1,1.4,0.3l-0.3,0.7c-0.5-0.2-0.8-0.2-1-0.2c-1.3,0-1.9,0.9-2,1.8
		c-0.1,1,0.3,1.8,1.5,1.8c0.2,0,0.6,0,1.1-0.2l0.1,0.7c-0.3,0.2-1,0.3-1.5,0.3c-1.5,0-2.3-1-2.1-2.5C105.4,81.6,106.4,80.7,108,80.7
		z"/>
	<path class="st6" d="M109.7,83.6c0-1.6,1.1-2.9,2.7-2.9c1.5,0,2.3,1.1,1.9,2.9h-3.7c-0.1,0.9,0.4,1.5,1.4,1.5c0.3,0,0.6,0,1.5-0.3
		l0.2,0.6c-0.3,0.2-1,0.4-1.9,0.4C110.5,85.7,109.7,84.9,109.7,83.6z M110.6,82.8h2.8c0.1-0.9-0.4-1.4-1.2-1.4
		C111.4,81.4,110.7,82.1,110.6,82.8z"/>
	<path class="st6" d="M119,85.6h-0.9l0.4-2.8c0.1-0.8-0.1-1.4-0.9-1.4c-0.4,0-1.4,0.2-1.6,1.4l-0.4,2.9h-0.9l0.7-4.8h0.8l-0.1,0.9
		c0.4-0.8,1.2-1,1.6-1c1.1,0,1.8,0.5,1.6,2.1L119,85.6z"/>
	<path class="st6" d="M120.3,81.5l0.1-0.7h0.7l0.2-1.2h0.8l-0.2,1.2h1.1l-0.1,0.7h-1.1l-0.4,2.7c-0.1,0.3-0.1,1.1,1.1,0.8l0,0.6
		c-0.3,0.2-0.7,0.2-0.7,0.2c-0.2,0-1.4,0.1-1.2-1.5l0.4-2.7H120.3z"/>
	<path class="st6" d="M124,80.8h0.9l-0.7,4.8h-0.9L124,80.8z M124.2,78.9h0.9l-0.1,0.9h-0.9L124.2,78.9z"/>
	<path class="st6" d="M126.8,85.6l-1.4-4.8h0.9l1.1,4.1l2.2-4.1h0.9l-2.7,4.8H126.8z"/>
	<path class="st6" d="M130.4,83.6c0-1.6,1.1-2.9,2.7-2.9c1.5,0,2.3,1.1,1.9,2.9h-3.7c-0.1,0.9,0.4,1.5,1.4,1.5c0.3,0,0.6,0,1.5-0.3
		l0.2,0.6c-0.3,0.2-1,0.4-1.9,0.4C131.2,85.7,130.4,84.9,130.4,83.6z M131.4,82.8h2.8c0.1-0.9-0.4-1.4-1.2-1.4
		C132.1,81.4,131.5,82.1,131.4,82.8z"/>
	<path class="st6" d="M138,83.8l-1.4-0.6c-0.9-0.4-0.8-1.1-0.7-1.5c0.3-0.9,1.5-1.4,2.8-1c0.3,0.1,0.4,0.2,0.7,0.4l-0.4,0.6
		c-0.6-0.5-2.2-0.6-2.3,0.2c-0.1,0.6,0.3,0.5,1.7,1.1c1,0.4,0.8,1.4,0.5,1.8c-0.4,0.7-1.6,1-2.7,0.6c-0.3-0.1-0.6-0.3-0.8-0.5
		l0.4-0.6c0.5,0.5,2.1,0.9,2.5,0.1C138.5,84,138.1,83.9,138,83.8z"/>
</g>
<g>
	<path class="st7" d="M72.3,122.7c-0.4,0-0.8-0.1-1.2-0.3c-0.4-0.1-1-0.4-1.5-0.8l0.4-0.8c1,0.9,3.6,1.6,4.4,0
		c0.2-0.8-0.2-1.3-0.8-1.5l-2.3-0.9c-1.4-0.6-1.6-1.5-1.5-2.3c0.2-1.1,1.1-1.8,2.5-1.8v-1.2H73v1.3c0.3,0,0.7,0.1,1,0.2
		c0.5,0.2,0.9,0.4,1.2,0.6l-0.4,0.8c-0.9-0.8-3.5-1.4-3.9,0.3c-0.1,0.9,0.6,1.1,1.2,1.3l2,0.8c1.7,0.7,1.6,2.2,1.2,3
		c-0.4,0.8-1.2,1.3-2.3,1.3v1.3h-0.6V122.7z"/>
	<path class="st7" d="M79.1,118.3c-0.6,0-1.2,0.2-1.4,0.8h-1l0.5-4.3h4v0.9H78l-0.3,2.3c0.5-0.6,1.6-0.6,1.7-0.6
		c1.3,0,2.4,1,2.4,2.6c0,1.8-1.3,2.7-2.8,2.7c-0.8,0-1.8-0.3-2.4-1.1L77,121c0.4,0.5,1.2,1,1.9,1c1.4,0,2-0.8,2-1.8
		C80.8,119.4,80.4,118.3,79.1,118.3z"/>
	<path class="st7" d="M83.8,121.5h1.1l-1.3,2.3h-0.8L83.8,121.5z"/>
	<path class="st7" d="M85.8,118.7c0-2.6,1.1-4,2.8-4c1.8,0,2.9,1.5,2.9,4c0,2.6-1.1,4-2.9,4C86.9,122.8,85.8,121.3,85.8,118.7z
		 M86.8,118.7c0,1.7,0.6,3.2,1.8,3.2c1.3,0,1.9-1.5,1.9-3.2c0-1.6-0.6-3.2-1.9-3.2C87.3,115.5,86.8,117.1,86.8,118.7z"/>
	<path class="st7" d="M92.4,118.7c0-2.6,1.1-4,2.8-4c1.8,0,2.9,1.5,2.9,4c0,2.6-1.1,4-2.9,4C93.5,122.8,92.4,121.3,92.4,118.7z
		 M93.4,118.7c0,1.7,0.6,3.2,1.8,3.2c1.3,0,1.9-1.5,1.9-3.2c0-1.6-0.6-3.2-1.9-3.2C93.9,115.5,93.4,117.1,93.4,118.7z"/>
	<path class="st7" d="M99,118.7c0-2.6,1.1-4,2.8-4c1.8,0,2.9,1.5,2.9,4c0,2.6-1.1,4-2.9,4C100,122.8,99,121.3,99,118.7z M100,118.7
		c0,1.7,0.6,3.2,1.8,3.2c1.3,0,1.9-1.5,1.9-3.2c0-1.6-0.6-3.2-1.9-3.2C100.5,115.5,100,117.1,100,118.7z"/>
	<path class="st7" d="M110.1,117.6c0.2-0.7,1.1-1,1.6-1c1.5,0,2.7,1,2.7,3c0,2.1-1.1,3-2.6,3c-0.1,0-1.2,0-1.7-0.8v0.7h-1v-8.1h1
		V117.6z M110.1,118.7v1.9c0,1.2,1.1,1.3,1.6,1.3c1.2,0,1.6-1.1,1.6-2.2c0-1.2-0.4-2.2-1.8-2.2C111.2,117.5,110.2,117.8,110.1,118.7
		z"/>
	<path class="st7" d="M118.8,122.6V122c-0.5,0.7-1.3,0.8-1.6,0.8c-1.1,0-2.1-0.6-2.1-1.8c0-1.5,1.4-2,3.7-2.1v-0.4
		c0-0.1,0.1-1-1.3-1c-0.9,0-1.3,0.3-1.7,0.5l-0.3-0.7c0,0,0.8-0.6,2-0.6c0.4,0,0.8,0,1.2,0.2c0.6,0.2,1.2,0.6,1.2,1.7v4.1H118.8z
		 M118.8,120.7v-1c-1.7,0.1-2.8,0.6-2.8,1.3c0,0.6,0.5,0.9,1.2,0.9C117.5,121.9,118.8,121.8,118.8,120.7z"/>
	<path class="st7" d="M123.8,120.5l-1.7-0.7c-1.1-0.5-1.2-1.3-1.1-1.8c0.2-1.1,1.5-1.7,3.1-1.2c0.3,0.1,0.6,0.2,0.9,0.4l-0.4,0.7
		c-0.8-0.6-2.6-0.7-2.6,0.3c0,0.7,0.5,0.6,2.2,1.3c1.3,0.5,1.1,1.7,0.9,2.2c-0.4,0.9-1.7,1.2-3.1,0.8c-0.3-0.1-0.8-0.3-1.1-0.6
		l0.4-0.7c0.6,0.5,2.6,1,3,0.1C124.4,120.7,123.9,120.5,123.8,120.5z"/>
	<path class="st7" d="M126,119.7c0-1.8,1-3,2.7-3c1.8,0,2.9,1.3,2.7,3.4H127c0,1.1,0.7,1.8,1.9,1.8c0.3,0,0.8,0,1.8-0.4l0.3,0.8
		c-0.4,0.2-1.1,0.5-2.2,0.5C127.2,122.8,126,121.6,126,119.7z M127,119.2h3.3c0-1.1-0.7-1.7-1.7-1.7
		C127.7,117.5,127,118.4,127,119.2z"/>
	<path class="st7" d="M139,122.6V122c-0.5,0.7-1.3,0.8-1.6,0.8c-1.1,0-2.1-0.6-2.1-1.8c0-1.5,1.4-2,3.7-2.1v-0.4c0-0.1,0.1-1-1.3-1
		c-0.9,0-1.3,0.3-1.7,0.5l-0.3-0.7c0,0,0.8-0.6,2-0.6c0.4,0,0.8,0,1.2,0.2c0.6,0.2,1.2,0.6,1.2,1.7v4.1H139z M139.1,120.7v-1
		c-1.7,0.1-2.8,0.6-2.8,1.3c0,0.6,0.5,0.9,1.2,0.9C137.8,121.9,139.1,121.8,139.1,120.7z"/>
	<path class="st7" d="M145.1,119c0-0.7-0.2-1.5-1.3-1.5c-0.6,0-1.3,0.4-1.3,1.8v3.3h-1v-5.8h0.9v1.1c0.3-1,1.1-1.2,1.7-1.2
		c0.7,0,1.4,0.3,1.7,1c0.3-0.6,0.9-1,1.7-1c1.1,0,2.1,0.5,2.1,2.3v3.6h-1v-3.4c0-1.1-0.3-1.7-1.3-1.7c-0.2,0-1.3,0-1.3,1.5v3.6h-1
		L145.1,119z"/>
	<path class="st7" d="M153.5,116.7c1.7,0,2.8,1.1,2.8,3s-1.1,3.1-2.8,3.1c-1.7,0-2.7-1.1-2.7-3.1S151.8,116.7,153.5,116.7z
		 M153.5,117.5c-1.2,0-1.7,1.1-1.7,2.2c0,1.1,0.6,2.2,1.7,2.2c1.1,0,1.8-1.1,1.8-2.2C155.3,118.6,154.6,117.5,153.5,117.5z"/>
	<path class="st7" d="M157.4,116.8h1v3.4c0,1,0.3,1.7,1.3,1.7c0.2,0,1.6,0,1.6-1.5v-3.6h1v5.8h-0.9v-0.8c-0.4,0.8-1.4,1-1.7,1
		c-1.3,0-2.3-0.6-2.3-2.6V116.8z"/>
	<path class="st7" d="M168.6,122.6h-1v-3.4c0-1-0.3-1.7-1.3-1.7c-0.4,0-1.6,0.2-1.6,1.7v3.4h-1v-5.8h0.9v1.1c0.3-1,1.2-1.2,1.7-1.2
		c1.3,0,2.3,0.6,2.3,2.5V122.6z"/>
	<path class="st7" d="M169.4,117.6v-0.8h0.8v-1.5h1v1.5h1.3v0.8h-1.3v3.2c0,0.4,0.1,1.4,1.4,0.9l0.1,0.8c-0.4,0.2-0.8,0.2-0.8,0.2
		c-0.3,0-1.6,0.1-1.6-1.8v-3.3H169.4z"/>
</g>
<g>
	<path class="st5" d="M178.9,117.9v-2.2h1.6v2.2h2.3v1.4h-2.3v2.2h-1.6v-2.2h-2.3v-1.4H178.9z"/>
</g>
<g>
	<path class="st8" d="M53.3,91.6c0-6.7-5.4-12.1-12.1-12.1S29.2,85,29.2,91.6c0,6.7,5.4,12.1,12.1,12.1
		C47.9,103.7,53.4,98.2,53.3,91.6 M55.2,93.3c-0.3,2.2-1,4.3-2.3,6.2c-1.3,1.9-3,3.5-5,4.5c-2.5,1.3-5.3,1.8-8,1.5
		c-4.6-0.5-8.7-3.3-10.8-7.4c-2.5-4.8-2.1-10.4,1-14.9c1.2-1.7,2.7-3.1,4.6-4c3.7-2,7.7-2.3,11.6-0.9c1,0.4,2,0.9,3,1.5
		c1.8,1.2,3.3,2.8,4.3,4.6C54.9,87.3,55.5,90.4,55.2,93.3"/>
	<path class="st8" d="M31.3,117.2c1.3-0.8,2.4-1.6,3.5-2.4c1.9-1.3,3.9-2.6,5.8-4c0.5-0.3,0.8-0.3,1.3,0c2.9,2,5.8,3.9,8.7,5.9
		c0.2,0.1,0.3,0.2,0.5,0.3c0.2-0.2,0.1-0.5,0.1-0.7c0-4.3,0-8.5,0-12.8c0-0.5,0.1-0.9,0.5-1.2c0.5-0.5,1-1.1,1.5-1.7v20
		c-1.5-0.9-2.9-1.8-4.4-2.7c-2.3-1.5-4.7-2.9-7-4.4c-0.5-0.3-0.8-0.2-1.2,0c-3.5,2.2-7,4.3-10.5,6.5c-0.2,0.1-0.5,0.3-0.8,0.5v-19.7
		c0.6,0.6,1.1,1.3,1.7,1.9c0.2,0.2,0.1,0.5,0.1,0.7C31.3,108,31.3,112.5,31.3,117.2"/>
	<path class="st8" d="M50.4,103.8c0,3.8,0,7.5,0,11.2c0,0.7-0.3,0.4-0.6,0.2c-2.6-1.8-5.3-3.5-7.9-5.3c-0.5-0.3-0.8-0.4-1.3,0
		c-2.5,1.7-5,3.4-7.5,5.1c-0.3,0.2-0.5,0.3-0.9,0.6v-11.7C38.2,108,44.3,108,50.4,103.8"/>
	<path class="st8" d="M40.6,97.8c-0.5-0.1-0.9-0.2-1.4-0.3c-0.7-0.3-1.8-0.7-2.6-1.5l0.9-1.9c0.9,0.8,2.7,1.7,4.3,1.7
		c0.8,0,1.8-0.4,1.8-1.3c0-0.6-0.4-1-0.9-1.2L39.5,92c-2-0.8-2.6-2-2.6-3.1c0-2,1.5-3.3,3.6-3.6v-1.6h1.9v1.6
		c1.4,0.2,2.4,0.7,3.5,1.5l-0.8,1.8c-1.9-1.2-3-1.2-3.6-1.2c-2.1,0-2.6,1.6-0.9,2.4L44,91c2,0.7,2.5,2,2.5,3.1c0,2.2-1.9,3.5-4,3.7
		v1.8h-1.9V97.8z"/>
</g>
<g>
	<path class="st4" d="M72.2,103.9c-0.4-0.1-0.8-0.1-1.2-0.3c-0.7-0.2-1.6-0.6-2.3-1.3l0.8-1.7c0.8,0.7,2.4,1.5,3.8,1.5
		c0.7,0,1.6-0.3,1.6-1.1c0-0.5-0.4-0.9-0.7-1l-2.9-1.1C69.6,98.1,69,97,69,96.1c0-1.8,1.3-2.9,3.2-3.1v-1.4h1.7V93
		c1.2,0.1,2.1,0.6,3.1,1.3l-0.7,1.6c-1.7-1-2.6-1.1-3.1-1.1c-1.9,0-2.3,1.4-0.8,2.1l2.8,1.1c1.7,0.6,2.2,1.7,2.2,2.7
		c0,2-1.6,3.1-3.5,3.3v1.5h-1.7V103.9z"/>
</g>
<g>
	<path class="st4" d="M79,97.3l2.8-2.8h2v10.3h-2.3v-7.6L80,98.6L79,97.3z"/>
	<path class="st4" d="M86,97.3l2.8-2.8h2v10.3h-2.3v-7.6L87,98.6L86,97.3z"/>
	<path class="st4" d="M95,102.7h2.6l-2.3,3.5h-2.1L95,102.7z"/>
	<path class="st4" d="M98.5,94.5h7.6V96c-2.2,2.8-3.5,5.6-4.5,8.8h-2.6c1.2-3.1,2.7-6.2,4.7-8.5h-5.3V94.5z"/>
	<path class="st4" d="M111.3,99.5c-0.5,0-1.2,0.1-1.6,0.8h-2l0.9-5.8h5.7v1.9h-4l-0.3,2c2.1-1.4,5.1-0.1,5.1,2.9
		c0,2.7-2.2,3.8-4.2,3.8c-1.5,0-2.7-0.6-3.5-1.5l1-1.6c1,1,2,1.2,2.4,1.2c1.7,0,2.2-1,2.2-1.9C113.1,100.4,112.6,99.5,111.3,99.5z"
		/>
	<path class="st4" d="M116.1,99.6c0-3.3,1.6-5.4,4.1-5.4c2.6,0,4.1,2.1,4.1,5.4c0,3.3-1.5,5.4-4.1,5.4
		C117.6,105,116.1,103,116.1,99.6z M118.4,99.6c0,1.8,0.6,3.6,1.8,3.6c1.2,0,1.8-1.8,1.8-3.6c0-1.8-0.6-3.6-1.8-3.6
		C119,96,118.4,97.9,118.4,99.6z"/>
</g>
<g>
	<path class="st5" d="M130.1,108.4h-1.4v-8.9h1.3v0.7c0.5-0.7,1.3-0.9,1.9-0.9c1.7,0,2.7,1.1,2.7,3.3s-1.2,3.3-3,3.3
		c-0.5,0-1.3-0.2-1.7-0.9V108.4z M133.3,102.6c0-1.1-0.4-2.2-1.6-2.2c-0.6,0-1.7,0.1-1.7,1.3v2.1c0,0.8,1.1,1.1,1.4,1.1
		C133,104.9,133.3,103.8,133.3,102.6z"/>
	<path class="st5" d="M135.7,102.6c0-1.9,1.1-3.3,3-3.3c1.9,0,3,1.2,3,3.2c0,0.2,0,0.4,0,0.6H137c0.1,1.1,0.8,1.8,2,1.8
		c0.3,0,1.2,0,2-0.4l0.4,0.9c-0.4,0.2-1.3,0.5-2.5,0.5C137.1,106,135.7,104.7,135.7,102.6z M137,102.1h3.4c-0.1-1.1-0.8-1.7-1.7-1.7
		C137.8,100.4,137.1,101.3,137,102.1z"/>
	<path class="st5" d="M146.4,100.5H146c-1.1,0-1.6,0.6-1.6,1.4v3.8h-1.3v-6.3h1.3v1.1c0.2-0.9,1.1-1.2,1.7-1.2h0.3V100.5z"/>
	<path class="st5" d="M152.4,106.4c0,2.1-1.4,2-1.8,2c-0.2,0-0.6,0-1.1-0.3l0.2-0.9c0.5,0.1,0.5,0.2,0.7,0.2c0.7,0,0.7-0.6,0.7-1.1
		v-6.8h1.3V106.4z M151.1,97h1.4v1.2h-1.4V97z"/>
	<path class="st5" d="M156.7,99.4c1.9,0,3.1,1.2,3.1,3.3s-1.2,3.3-3.1,3.3c-1.9,0-3.1-1.2-3.1-3.3S154.8,99.4,156.7,99.4z
		 M156.7,100.4c-1.2,0-1.8,1.1-1.8,2.3c0,1.1,0.6,2.3,1.8,2.3c1.1,0,1.8-1.1,1.8-2.3C158.5,101.5,157.9,100.4,156.7,100.4z"/>
	<path class="st5" d="M162.4,100.2c0.5-0.8,1.3-0.9,1.8-0.9c1.6,0,2.8,1.1,2.8,3.3c0,2.2-1.2,3.3-2.8,3.3c-0.2,0-1.6-0.1-1.8-0.9
		v0.7h-1.3V97h1.4V100.2z M162.4,101.5v2.1c0,1.2,1.1,1.3,1.7,1.3c1.2,0,1.6-1.1,1.6-2.2c0-1.2-0.4-2.2-1.8-2.2
		C163.5,100.4,162.4,100.7,162.4,101.5z"/>
	<path class="st5" d="M173.3,108.4h-1.4v-8.9h1.3v0.7c0.5-0.7,1.3-0.9,1.9-0.9c1.7,0,2.7,1.1,2.7,3.3s-1.2,3.3-3,3.3
		c-0.5,0-1.3-0.2-1.7-0.9V108.4z M176.5,102.6c0-1.1-0.4-2.2-1.6-2.2c-0.6,0-1.7,0.1-1.7,1.3v2.1c0,0.8,1.1,1.1,1.4,1.1
		C176.1,104.9,176.5,103.8,176.5,102.6z"/>
	<path class="st5" d="M178.8,102.6c0-1.9,1.1-3.3,3-3.3c1.9,0,3,1.2,3,3.2c0,0.2,0,0.4,0,0.6h-4.8c0.1,1.1,0.8,1.8,2,1.8
		c0.3,0,1.2,0,2-0.4l0.4,0.9c-0.4,0.2-1.3,0.5-2.5,0.5C180.2,106,178.8,104.7,178.8,102.6z M180.2,102.1h3.4
		c-0.1-1.1-0.8-1.7-1.7-1.7C180.9,100.4,180.2,101.3,180.2,102.1z"/>
	<path class="st5" d="M189.5,100.5h-0.4c-1.1,0-1.6,0.6-1.6,1.4v3.8h-1.3v-6.3h1.3v1.1c0.2-0.9,1.1-1.2,1.7-1.2h0.3V100.5z"/>
	<path class="st5" d="M194.5,107.2c0.3,0.1,0.5,0.1,0.7,0.1c0.5,0,0.6-0.4,0.6-0.4l0.4-1.1l-2.8-6.3h1.4l2,4.8l2-4.8h1.4l-3.3,7.9
		c-0.4,0.9-1.3,1-1.7,1c-0.3,0-0.6-0.1-0.9-0.2L194.5,107.2z"/>
	<path class="st5" d="M200.6,102.6c0-1.9,1.1-3.3,3-3.3c1.9,0,3,1.2,3,3.2c0,0.2,0,0.4,0,0.6h-4.8c0.1,1.1,0.8,1.8,2,1.8
		c0.3,0,1.2,0,2-0.4l0.4,0.9c-0.4,0.2-1.3,0.5-2.5,0.5C202.1,106,200.6,104.7,200.6,102.6z M202,102.1h3.4c-0.1-1.1-0.8-1.7-1.7-1.7
		C202.7,100.4,202.1,101.3,202,102.1z"/>
	<path class="st5" d="M211.8,105.8v-0.7c-0.5,0.7-1.5,0.8-2,0.8c-0.9,0-2.2-0.5-2.2-2c0-1.6,1.7-2.1,4.2-2.3v-0.3c0-0.4-0.3-1-1.5-1
		c-0.5,0-1,0.1-1.4,0.2c-0.2,0.1-0.4,0.2-0.6,0.2L208,100c0,0,0.9-0.6,2.3-0.7c0.5,0,1,0,1.4,0.2c0.7,0.2,1.4,0.7,1.4,1.8v4.4H211.8
		z M211.8,103.5v-0.9c-1.7,0.1-2.9,0.6-2.9,1.3c0,0.6,0.5,1,1.1,1C210.3,105,211.8,104.8,211.8,103.5z"/>
	<path class="st5" d="M218.1,100.5h-0.4c-1.1,0-1.6,0.6-1.6,1.4v3.8h-1.3v-6.3h1.3v1.1c0.2-0.9,1.1-1.2,1.7-1.2h0.3V100.5z"/>
</g>
<polyline class="st9" points="292.1,49 314.4,101.9 292.1,155.3 "/>
<g>
	<path class="st8" d="M357.9,93.3c0.3,0,0.6,0,0.9,0c0.4,0,0.8,0,1.2,0c0.7-0.1,0.9-0.7,0.5-1.3c-0.3-0.5-0.8-0.7-1.3-0.7
		c-0.8,0-1.7,0-2.5,0c-0.6,0-1,0.2-1.4,0.7c-0.3,0.5-0.2,1,0.4,1.2c0.2,0.1,0.4,0.1,0.6,0.1C356.8,93.3,357.3,93.3,357.9,93.3
		 M372.6,97.1c0,0.8,0,1.7,0,2.5c0,0.7-0.3,1.1-0.8,1.4c-0.8,0.4-1.6,0.7-2.5,1c-3.2,1.2-6.3,2.5-9.5,3.7c-0.9,0.3-1.7,0.4-2.6,0
		c-4.2-1.6-8.5-3.1-12.7-4.7c-0.3-0.1-0.5-0.3-0.8-0.4c-0.3-0.2-0.5-0.6-0.5-1c0-1.7,0-3.4,0-5.1c0-0.9,0.4-1.3,1.3-1.3
		c0.7,0,1.3,0,2,0c0.3,0,0.5,0,0.5-0.4c0-0.4,0.5-0.8,1-0.8c0.5,0,0.9,0,1.4,0c0.6,0,1,0.4,1,1c0,0.1,0.1,0.2,0.2,0.2
		c0.5,0,1,0.1,1.5,0c0.4,0,0.7-0.4,0.9-0.8c0.1-0.4,0.2-0.9,0.4-1.3c0.5-1,1.4-1.6,2.5-1.6c1.3-0.1,2.6-0.1,3.8,0
		c1.5,0.1,2.5,1,2.9,2.5c0.1,0.3,0.2,0.5,0.3,0.7c0.2,0.4,0.6,0.5,1,0.5c0.6,0,1.2,0,1.8,0c0.2,0,0.3,0,0.3-0.3c0-0.6,0.4-1,1-1
		c0.5,0,1,0,1.4,0c0.6,0,1,0.4,1,1c0,0.3,0.2,0.3,0.4,0.3c0.5,0,1,0,1.4,0c1,0,1.4,0.4,1.4,1.4C372.6,95.5,372.6,96.3,372.6,97.1"/>
	<path class="st8" d="M357.9,114.8c-4.4,0-8.8,0-13.2,0c-1,0-1.4-0.4-1.4-1.4c0-3.2,0-6.3,0-9.5c0-0.1,0-0.2,0-0.3
		c0-0.6,0.5-0.9,1.1-0.7c1.3,0.4,2.5,0.9,3.8,1.4c3.3,1.2,6.6,2.4,9.9,3.6c0.4,0.1,0.7,0.1,1.1,0c4.1-1.6,8.1-3.2,12.2-4.8
		c0.1-0.1,0.3-0.1,0.4-0.2c0.5-0.1,0.8,0.1,0.9,0.6c0,0.1,0,0.3,0,0.4c0,3.2,0,6.3,0,9.5c0,1-0.4,1.4-1.4,1.4
		C366.8,114.8,362.4,114.8,357.9,114.8L357.9,114.8z"/>
	<g>
		<path class="st4" d="M58.4,187c0-1.1-0.9-2-2-2c-1.1,0-2.1,0.9-2.1,2c0,1.1,0.9,2.1,2,2.1C57.5,189,58.4,188.1,58.4,187 M42.1,187
			c0,1.1,0.9,2,2,2c1.1,0,2.1-0.9,2.1-2c0-1.1-0.9-2-2-2C43,184.9,42.1,185.9,42.1,187 M33.2,213.6v-17.1h0.2c3.8,0,7.5,0,11.3,0
			c0.1,0,0.2,0,0.3-0.1c1.1-1.1,2.1-2.1,3.2-3.2c0,0,0.1,0,0.1-0.1c0,0-0.1-0.1-0.1-0.1c-0.8-0.8-1.5-1.5-2.3-2.3
			c-0.1-0.1-0.1-0.1-0.2,0c-2.3,1-5-0.4-5.6-2.8c-0.5-2.1,0.7-4.2,2.8-4.8c2.3-0.7,4.8,0.8,5.2,3.1c0.1,0.8,0.1,1.6-0.3,2.3
			c0,0.1,0,0.1,0,0.2c0.8,0.8,1.5,1.5,2.3,2.3c0,0,0,0,0.1,0c0.2-0.2,0.3-0.3,0.5-0.5c0.6-0.6,1.2-1.2,1.9-1.9
			c0.1-0.1,0.1-0.1,0-0.2c-1-2.3,0.4-5,2.9-5.6c2.2-0.5,4.4,0.9,4.9,3.2c0.4,2.1-0.8,4.2-2.8,4.8c-0.9,0.3-1.9,0.2-2.8-0.2
			c-0.1,0-0.1,0-0.2,0c-1.9,1.9-3.8,3.8-5.7,5.7c-1.1,1.1-2.2,2.3-3.4,3.4c-1.5,1.5-3,2.9-4.5,4.4c-0.1,0.1-0.1,0.1-0.2,0.1
			c-0.3,0-0.6,0-0.9,0c0,0,0-0.1,0-0.1c0-0.9,0-1.9,0-2.8c0-0.1,0-0.1,0.1-0.2c0.4-0.4,1.7-1.7,2.1-2.1h-4.6c-0.1,1-0.7,1.5-1.7,1.7
			v8.6c1,0.1,1.6,0.7,1.7,1.7H63c0.1-1,0.8-1.5,1.7-1.7v-8.6c-0.4,0-0.8-0.3-1.1-0.6c-0.3-0.3-0.5-0.7-0.6-1.1H49.4
			c1.7-1.7,2.5-2.5,4.2-4.2c0.3,0.3,0.6,0.5,1,0.8c0.3,0.3,0.6,0.5,1,0.8c0.1,0.1,0.1,0.1,0.2,0.1c3.8,0,7.5,0,11.3,0h0.2v17.1H33.2
			z"/>
		<path class="st4" d="M53.7,205.1c0,1.9-1.5,3.4-3.4,3.4c-1.9,0-3.4-1.5-3.4-3.4c0-1.9,1.5-3.4,3.4-3.4
			C52.1,201.7,53.7,203.2,53.7,205.1"/>
	</g>
</g>
<g>
	<path class="st5" d="M77.5,211.6v-1.2h1V209h1.9v1.4h1.3v1.2h-1.3v3.2c0,0.2,0,0.6,0.5,0.6c0.1,0,0.3,0,0.9-0.3l0.1,1.2
		c-0.7,0.4-1.2,0.4-1.3,0.4c-0.5,0-2,0-2-2.1v-3H77.5z"/>
	<path class="st5" d="M86.2,216.6v-0.8c-0.3,0.7-1.3,0.9-1.8,0.9c-0.6,0-1.9-0.5-1.9-2c0-1.3,1.4-2.1,3.8-2.2v-0.1
		c0,0,0.1-0.8-0.9-0.8c-0.5,0-1,0.1-1.4,0.3c-0.2,0.1-0.4,0.2-0.5,0.3l-0.5-1.1c0,0,1.1-0.7,2.7-0.7c0.1,0,2.5-0.1,2.5,2.1v4.2H86.2
		z M86.2,214.3v-0.8c-1.2,0.1-2,0.6-2,1.1c0,0.4,0.3,0.7,0.7,0.7C85.1,215.3,86.2,215.2,86.2,214.3z"/>
	<path class="st5" d="M95.7,210.4l-2.2,3c1.3,1.7,2,2.6,2.4,3.1h-2.2l-1.4-2.1l-1.4,2.1h-2.2l2.4-3.1l-2.2-3h2.2l1.2,2
		c0.4-0.6,0.8-1.4,1.2-2H95.7z"/>
	<path class="st5" d="M137.4,208.5h1.9v1.6h-1.9V208.5z M137.4,210.9h1.9v6.1h-1.9V210.9z"/>
	<path class="st5" d="M146.6,217h-1.9v-3.5c0-0.8-0.2-1.4-0.8-1.4c-0.3,0-1.2,0.2-1.2,1.3v3.6h-1.9v-6.1h1.8v0.9
		c0.5-1,1.4-1.1,1.8-1.1c1.4,0,2.2,0.7,2.2,2.8V217z"/>
	<path class="st5" d="M151,210.7c0.7,0,1.5,0.2,2.2,0.5l-0.4,1.2c-0.6-0.3-1.3-0.3-1.6-0.3c-1.1,0-1.6,0.9-1.6,1.8
		c0,0.9,0.5,1.8,1.6,1.8c0.3,0,0.9,0,1.6-0.3l0.4,1.2c-0.6,0.3-1.5,0.5-2.2,0.5c-2,0-3.3-1.2-3.3-3.2
		C147.7,212,148.9,210.7,151,210.7z"/>
	<path class="st5" d="M153.9,214c0-1.8,1.2-3.2,3.1-3.2c2.2,0,3.3,1.7,3.1,3.8h-4.4c0.1,0.8,0.7,1.3,1.8,1.3c0.4,0,1.1,0,1.9-0.5
		l0.4,1.1c-0.5,0.3-1.5,0.7-2.6,0.7C155.1,217.2,153.9,215.7,153.9,214z M158.5,213.3c0-0.7-0.6-1.3-1.4-1.3c-0.8,0-1.4,0.5-1.4,1.3
		H158.5z"/>
	<path class="st5" d="M167.1,217h-1.9v-3.5c0-0.8-0.2-1.4-0.8-1.4c-0.3,0-1.2,0.2-1.2,1.3v3.6h-1.9v-6.1h1.8v0.9
		c0.5-1,1.4-1.1,1.8-1.1c1.4,0,2.2,0.7,2.2,2.8V217z"/>
	<path class="st5" d="M167.9,212.1v-1.2h1v-1.4h1.9v1.4h1.3v1.2h-1.3v3.2c0,0.2,0,0.6,0.5,0.6c0.1,0,0.3,0,0.9-0.3l0.1,1.2
		c-0.7,0.4-1.2,0.4-1.3,0.4c-0.5,0-2,0-2-2.1v-3H167.9z"/>
	<path class="st5" d="M173.2,208.5h1.9v1.6h-1.9V208.5z M173.2,210.9h1.9v6.1h-1.9V210.9z"/>
	<path class="st5" d="M178.7,217l-2.6-6.1h2l1.5,4.3l1.5-4.3h2l-2.6,6.1H178.7z"/>
	<path class="st5" d="M183.5,214c0-1.8,1.2-3.2,3.1-3.2c2.2,0,3.3,1.7,3.1,3.8h-4.4c0.1,0.8,0.7,1.3,1.8,1.3c0.4,0,1.1,0,1.9-0.5
		l0.4,1.1c-0.5,0.3-1.5,0.7-2.6,0.7C184.7,217.2,183.5,215.7,183.5,214z M188,213.3c0-0.7-0.6-1.3-1.4-1.3c-0.8,0-1.4,0.5-1.4,1.3
		H188z"/>
	<path class="st5" d="M103.5,210.2c0.7,0,1.5,0.2,2.2,0.5l-0.4,1.2c-0.6-0.3-1.3-0.3-1.6-0.3c-1.1,0-1.6,0.9-1.6,1.8
		c0,0.9,0.5,1.8,1.6,1.8c0.3,0,0.9,0,1.6-0.3l0.4,1.2c-0.6,0.3-1.5,0.5-2.2,0.5c-2,0-3.3-1.2-3.3-3.2
		C100.3,211.5,101.5,210.2,103.5,210.2z"/>
	<path class="st5" d="M110.6,211.8h-0.4c-1.1,0-1.5,0.5-1.5,1.4l0,3.4h-1.9v-6.1h1.8v1.1c0.3-1,1.2-1.3,1.6-1.3h0.3V211.8z"/>
	<path class="st5" d="M111.1,213.5c0-1.8,1.2-3.2,3.1-3.2c2.2,0,3.3,1.7,3.1,3.8h-4.4c0.1,0.8,0.7,1.3,1.8,1.3c0.4,0,1.1,0,1.9-0.5
		l0.4,1.1c-0.5,0.3-1.5,0.7-2.6,0.7C112.2,216.7,111.1,215.2,111.1,213.5z M115.6,212.9c0-0.7-0.6-1.3-1.4-1.3
		c-0.8,0-1.4,0.5-1.4,1.3H115.6z"/>
	<path class="st5" d="M122.3,208h1.9v8.5h-1.9v-0.7c-0.4,0.7-1.4,0.9-1.5,0.9c-1.6,0-2.7-1.1-2.7-3.2c0-2.2,1.1-3.2,2.4-3.2
		c0.6,0,1.3,0.1,1.7,0.8V208z M120.1,213.5c0,0.9,0.3,1.8,1.1,1.8c0.4,0,1.1-0.1,1.1-1v-1.6c0-0.9-0.7-1-0.9-1
		C120.4,211.7,120.1,212.5,120.1,213.5z"/>
	<path class="st5" d="M125.8,208h1.9v1.6h-1.9V208z M125.8,210.4h1.9v6.1h-1.9V210.4z"/>
	<path class="st5" d="M128.6,211.6v-1.2h1V209h1.9v1.4h1.3v1.2h-1.3v3.2c0,0.2,0,0.6,0.5,0.6c0.1,0,0.3,0,0.9-0.3l0.1,1.2
		c-0.7,0.4-1.2,0.4-1.3,0.4c-0.5,0-2,0-2-2.1v-3H128.6z"/>
</g>
<g>
	<path class="st7" d="M82.2,198.9c-0.7-0.1-1.3-0.2-1.9-0.5c-1-0.4-2.5-1-3.6-2l1.3-2.7c1.2,1.1,3.8,2.3,6,2.3
		c1.1,0,2.5-0.5,2.5-1.8c0-0.8-0.6-1.4-1.2-1.6l-4.5-1.8c-2.7-1.1-3.6-2.8-3.6-4.2c0-2.8,2.1-4.5,5-4.9v-2.2h2.6v2.2
		c1.9,0.2,3.2,0.9,4.8,2.1l-1.1,2.5c-2.6-1.6-4.1-1.7-4.9-1.7c-2.9,0-3.6,2.3-1.2,3.3l4.4,1.7c2.7,1,3.5,2.7,3.5,4.3
		c0,3.1-2.6,4.9-5.5,5.1v2.4h-2.6V198.9z"/>
	<path class="st7" d="M99.3,198.7v-3h-7.1v-2.6c1.7-3.9,4.5-7.9,7.3-10.6h3.5v10.4h2.2v2.8h-2.2v3L99.3,198.7z M99.3,192.9V187
		c-1.9,2-3.2,4.2-3.8,5.9H99.3z"/>
	<path class="st7" d="M107.6,182.5h12v2.3c-3.5,4.5-5.4,8.9-7,13.9h-4.1c1.9-4.9,4.3-9.7,7.4-13.3h-8.3V182.5z"/>
	<path class="st7" d="M125,195.5h4l-3.6,5.6h-3.2L125,195.5z"/>
	<path class="st7" d="M131.1,190.7c0-5.2,2.5-8.4,6.4-8.4c4.1,0,6.5,3.2,6.5,8.4c0,5.2-2.4,8.4-6.5,8.4
		C133.5,199.1,131.1,195.9,131.1,190.7z M134.7,190.7c0,2.9,0.9,5.7,2.8,5.7c1.9,0,2.9-2.8,2.9-5.7c0-2.8-0.9-5.7-2.9-5.7
		C135.6,185,134.7,187.9,134.7,190.7z"/>
	<path class="st7" d="M146.1,190.7c0-5.2,2.5-8.4,6.4-8.4c4.1,0,6.5,3.2,6.5,8.4c0,5.2-2.4,8.4-6.5,8.4
		C148.5,199.1,146.1,195.9,146.1,190.7z M149.7,190.7c0,2.9,0.9,5.7,2.8,5.7c1.9,0,2.9-2.8,2.9-5.7c0-2.8-0.9-5.7-2.9-5.7
		C150.6,185,149.7,187.9,149.7,190.7z"/>
	<path class="st7" d="M161.1,190.7c0-5.2,2.5-8.4,6.4-8.4c4.1,0,6.5,3.2,6.5,8.4c0,5.2-2.4,8.4-6.5,8.4
		C163.5,199.1,161.1,195.9,161.1,190.7z M164.7,190.7c0,2.9,0.9,5.7,2.8,5.7c1.9,0,2.9-2.8,2.9-5.7c0-2.8-0.9-5.7-2.9-5.7
		C165.6,185,164.7,187.9,164.7,190.7z"/>
	<path class="st7" d="M178.8,195.5h4l-3.6,5.6H176L178.8,195.5z"/>
	<path class="st7" d="M184.9,190.7c0-5.2,2.5-8.4,6.4-8.4c4.1,0,6.5,3.2,6.5,8.4c0,5.2-2.4,8.4-6.5,8.4
		C187.4,199.1,184.9,195.9,184.9,190.7z M188.5,190.7c0,2.9,0.9,5.7,2.8,5.7c1.9,0,2.9-2.8,2.9-5.7c0-2.8-0.9-5.7-2.9-5.7
		C189.5,185,188.5,187.9,188.5,190.7z"/>
	<path class="st7" d="M199.9,190.7c0-5.2,2.5-8.4,6.4-8.4c4.1,0,6.5,3.2,6.5,8.4c0,5.2-2.4,8.4-6.5,8.4
		C202.4,199.1,199.9,195.9,199.9,190.7z M203.5,190.7c0,2.9,0.9,5.7,2.8,5.7c1.9,0,2.9-2.8,2.9-5.7c0-2.8-0.9-5.7-2.9-5.7
		C204.5,185,203.5,187.9,203.5,190.7z"/>
	<path class="st7" d="M214.9,190.7c0-5.2,2.5-8.4,6.4-8.4c4.1,0,6.5,3.2,6.5,8.4c0,5.2-2.4,8.4-6.5,8.4
		C217.4,199.1,214.9,195.9,214.9,190.7z M218.5,190.7c0,2.9,1,5.7,2.8,5.7c1.9,0,2.9-2.8,2.9-5.7c0-2.8-1-5.7-2.9-5.7
		C219.5,185,218.5,187.9,218.5,190.7z"/>
</g>
<g>
	<path class="st7" d="M16.9,193.7V192h7.2v1.7H16.9z M16.9,196.9v-1.7h7.2v1.7H16.9z"/>
</g>
<g>
	<path class="st5" d="M249.2,194.5c0-2.8,1.6-4.4,4.3-4.4c2.6,0,4.3,1.6,4.3,4.4c0,2.8-1.6,4.4-4.3,4.4
		C250.9,198.9,249.2,197.3,249.2,194.5z M251.3,194.5c0,1.7,0.7,3,2.2,3c1.5,0,2.2-1.3,2.2-3c0-1.6-0.7-3-2.2-3
		C252,191.5,251.3,192.9,251.3,194.5z"/>
	<path class="st5" d="M264.2,194.9c0.6,0.2,0.9,0.8,0.9,0.9l1.2,3h-2l-1-2.4c-0.2-0.5-0.5-0.7-1-0.8H261v3.2h-2v-8.5h3.9
		c2.4,0,2.9,1.5,2.9,2.6C265.8,193.3,265.7,194.5,264.2,194.9z M262.9,194.1c0.7,0,1-0.7,1-1.1c0-0.6-0.4-1.3-1.1-1.3H261v2.4H262.9
		z"/>
</g>
<g>
	<path class="st5" d="M387.5,194.5c0-2.8,1.6-4.4,4.3-4.4c2.6,0,4.3,1.6,4.3,4.4c0,2.8-1.6,4.4-4.3,4.4
		C389.2,198.9,387.5,197.3,387.5,194.5z M389.6,194.5c0,1.7,0.7,3,2.2,3c1.5,0,2.2-1.3,2.2-3c0-1.6-0.7-3-2.2-3
		C390.3,191.5,389.6,192.9,389.6,194.5z"/>
	<path class="st5" d="M402.6,194.9c0.6,0.2,0.9,0.8,0.9,0.9l1.2,3h-2l-1-2.4c-0.2-0.5-0.5-0.7-1-0.8h-1.3v3.2h-2v-8.5h3.9
		c2.4,0,2.9,1.5,2.9,2.6C404.1,193.3,404,194.5,402.6,194.9z M401.2,194.1c0.7,0,1-0.7,1-1.1c0-0.6-0.4-1.3-1.1-1.3h-1.8v2.4H401.2z
		"/>
</g>
<g>
	<g>
		<polyline class="st10" points="240,228.9 240,229.9 239,229.9 		"/>
		<line class="st11" x1="234.6" y1="229.9" x2="224" y2="229.9"/>
		<line class="st12" x1="221.8" y1="229.9" x2="12.6" y2="229.9"/>
		<polyline class="st10" points="10.4,229.9 9.4,229.9 9.4,228.9 		"/>
		<line class="st13" x1="9.4" y1="224" x2="9.4" y2="212.3"/>
		<line class="st14" x1="9.4" y1="209.9" x2="9.4" y2="170"/>
		<polyline class="st10" points="9.4,167.6 9.4,166.6 10.4,166.6 		"/>
		<line class="st11" x1="14.8" y1="166.6" x2="25.4" y2="166.6"/>
		<line class="st12" x1="27.6" y1="166.6" x2="236.8" y2="166.6"/>
		<polyline class="st10" points="239,166.6 240,166.6 240,167.6 		"/>
		<line class="st13" x1="240" y1="172.4" x2="240" y2="184.1"/>
		<line class="st14" x1="240" y1="186.5" x2="240" y2="226.4"/>
	</g>
</g>
<g>
	<g>
		<path class="st5" d="M444.6,219h-1.9v-8.5h1.9v0.8c0.5-0.8,1.3-0.9,1.7-0.9c1.4,0,2.5,1.1,2.5,3.2c0,2.2-1.2,3.2-2.6,3.2
			c-0.4,0-1.2-0.2-1.6-0.9V219z M446.8,213.6c0-0.9-0.3-1.8-1.1-1.8c-0.4,0-1.2,0.1-1.2,1v1.6c0,0.9,0.8,1.1,0.9,1.1
			C446.5,215.4,446.8,214.6,446.8,213.6z"/>
		<path class="st5" d="M449.6,213.6c0-1.8,1.2-3.2,3.1-3.2c2.2,0,3.3,1.7,3.1,3.8h-4.4c0.1,0.8,0.7,1.3,1.8,1.3c0.4,0,1.1,0,1.9-0.5
			l0.4,1.1c-0.5,0.3-1.5,0.7-2.6,0.7C450.8,216.8,449.6,215.3,449.6,213.6z M454.2,213c0-0.7-0.6-1.3-1.4-1.3
			c-0.8,0-1.4,0.5-1.4,1.3H454.2z"/>
		<path class="st5" d="M460.9,211.9h-0.4c-1.1,0-1.5,0.5-1.5,1.4l0,3.4h-1.9v-6.1h1.8v1.1c0.3-1,1.2-1.3,1.6-1.3h0.3V211.9z"/>
		<path class="st5" d="M468.4,215.1c0.1-0.3,0-0.5-0.3-0.6l-1.6-0.6c-1.1-0.5-1.4-1-1.4-1.7c0-1.1,1-1.8,2.4-1.8
			c0.9,0,1.5,0.2,2.5,0.9l-0.6,1.1c-0.7-0.5-1.3-0.7-1.8-0.7c-0.3,0-0.5,0.1-0.6,0.4c-0.1,0.2,0.1,0.4,0.7,0.7l1,0.4
			c1.3,0.4,1.8,1.5,1.3,2.6c-0.3,0.7-1.2,1.1-2.3,1.1c-0.4,0-0.9-0.1-1.3-0.2c-0.4-0.1-1-0.4-1.4-0.8l0.7-1.2c0.6,0.5,1.3,0.8,2,0.8
			C468.1,215.4,468.3,215.3,468.4,215.1z"/>
		<path class="st5" d="M475.3,216c-0.4,0.7-1.2,0.9-1.6,0.9c-1.4,0-2.6-1.1-2.6-3.2c0-2.2,1.1-3.2,2.5-3.2c0.4,0,1.2,0.1,1.7,0.9
			v-0.8h1.9v8.5h-1.9V216z M475.3,214.4v-1.6c0-0.9-0.7-1-1.2-1c-0.8,0-1.1,0.9-1.1,1.8c0,0.9,0.2,1.8,1.3,1.8
			C474.5,215.4,475.3,215.3,475.3,214.4z"/>
		<path class="st5" d="M478.7,210.6h1.9v3.5c0,0.8,0.2,1.3,0.8,1.3c0.2,0,1.2-0.1,1.2-1.1v-3.8h1.9v6.1h-1.8v-0.9
			c-0.5,1-1.6,1-1.7,1c-1,0-2.2-0.7-2.2-2.7V210.6z"/>
		<path class="st5" d="M489.3,216.7v-0.8c-0.3,0.7-1.3,0.9-1.8,0.9c-0.6,0-1.9-0.5-1.9-2c0-1.3,1.4-2.1,3.8-2.2v-0.1
			c0,0,0.1-0.8-0.9-0.8c-0.5,0-1,0.1-1.4,0.3c-0.2,0.1-0.4,0.2-0.5,0.3l-0.5-1.1c0,0,1.1-0.7,2.7-0.7c0.1,0,2.5-0.1,2.5,2.1v4.2
			H489.3z M489.4,214.5v-0.8c-1.2,0.1-2,0.6-2,1.1c0,0.4,0.3,0.7,0.7,0.7C488.3,215.5,489.4,215.3,489.4,214.5z"/>
		<path class="st5" d="M496.5,211.9h-0.4c-1.1,0-1.5,0.5-1.5,1.4l0,3.4h-1.9v-6.1h1.8v1.1c0.3-1,1.2-1.3,1.6-1.3h0.3V211.9z"/>
		<path class="st5" d="M497.2,213.6c0-1.8,1.2-3.2,3.1-3.2c2.2,0,3.3,1.7,3.1,3.8H499c0.1,0.8,0.7,1.3,1.8,1.3c0.4,0,1.1,0,1.9-0.5
			l0.4,1.1c-0.5,0.3-1.5,0.7-2.6,0.7C498.3,216.8,497.2,215.3,497.2,213.6z M501.7,213c0-0.7-0.6-1.3-1.4-1.3
			c-0.8,0-1.4,0.5-1.4,1.3H501.7z"/>
		<path class="st5" d="M508.3,210.6v-0.5c0-2.2,1.7-2.1,2-2.1c0.1,0,0.7,0,1.3,0.4l-0.3,1.1c-0.4-0.1-0.5-0.2-0.8-0.2
			c-0.4,0-0.4,0.4-0.4,0.6v0.7h1.1v1.2h-1.1v4.9h-1.9l0-4.9h-0.7v-1.2H508.3z"/>
		<path class="st5" d="M515,210.4c1.9,0,3.2,1.2,3.2,3.2c0,2-1.2,3.2-3.2,3.2c-1.9,0-3.1-1.3-3.1-3.2
			C511.9,211.6,513.1,210.4,515,210.4z M515,211.8c-0.8,0-1.2,0.9-1.2,1.8c0,0.9,0.4,1.9,1.2,1.9s1.3-1,1.3-1.9
			C516.2,212.7,515.8,211.8,515,211.8z"/>
		<path class="st5" d="M522.2,210.4c1.9,0,3.2,1.2,3.2,3.2c0,2-1.2,3.2-3.2,3.2c-1.9,0-3.1-1.3-3.1-3.2
			C519,211.6,520.2,210.4,522.2,210.4z M522.2,211.8c-0.8,0-1.2,0.9-1.2,1.8c0,0.9,0.4,1.9,1.2,1.9s1.3-1,1.3-1.9
			C523.4,212.7,523,211.8,522.2,211.8z"/>
		<path class="st5" d="M525.9,211.7v-1.2h1v-1.4h1.9v1.4h1.3v1.2h-1.3v3.2c0,0.2,0,0.6,0.5,0.6c0.1,0,0.3,0,0.9-0.3l0.1,1.2
			c-0.7,0.4-1.2,0.4-1.3,0.4c-0.5,0-2,0-2-2.1v-3H525.9z"/>
	</g>
	<g>
		<path class="st7" d="M424.9,193.8v-1.7h7.2v1.7H424.9z M424.9,197v-1.7h7.2v1.7H424.9z"/>
	</g>
	<g>
		<path class="st4" d="M445.4,198.2c-0.7-0.1-1.3-0.2-1.9-0.5c-1-0.4-2.5-1-3.6-2l1.3-2.7c1.2,1.1,3.8,2.3,6,2.3
			c1.1,0,2.5-0.5,2.5-1.8c0-0.8-0.6-1.4-1.2-1.6l-4.5-1.8c-2.7-1.1-3.6-2.8-3.6-4.2c0-2.8,2.1-4.5,5-4.9v-2.2h2.6v2.2
			c1.9,0.2,3.2,0.9,4.8,2.1l-1.1,2.5c-2.6-1.6-4.1-1.7-4.9-1.7c-3,0-3.6,2.3-1.2,3.3l4.4,1.7c2.7,1,3.5,2.7,3.5,4.3
			c0,3.1-2.6,4.9-5.5,5.1v2.4h-2.6V198.2z"/>
		<path class="st4" d="M461.9,189.7c-0.8,0-1.8,0.2-2.4,1.2h-3.1l1.5-9.1h9v3h-6.3l-0.5,3.1c3.3-2.3,8-0.1,8,4.6
			c0,4.2-3.4,5.9-6.5,5.9c-2.4,0-4.2-1-5.5-2.4l1.5-2.5c1.5,1.6,3.1,1.9,3.8,1.9c2.6,0,3.4-1.6,3.4-3
			C464.7,191.2,463.9,189.7,461.9,189.7z"/>
		<path class="st4" d="M470.7,193.6c0-1.1,0.5-3.2,2.8-3.9c-1.7-0.7-2.3-2.4-2.3-3.7c0-2.7,2.3-3.9,4.4-4.3c0.2,0,0.7-0.1,1.3-0.1
			c0.7,0,1.2,0.1,1.3,0.1c2.1,0.4,4.3,1.6,4.3,4.3c0,1.2-0.6,2.9-2.3,3.7c2.3,0.7,2.8,2.8,2.8,3.9c0,2.5-1.9,4.8-6.1,4.8
			C472.5,198.4,470.7,196.1,470.7,193.6z M479.3,193.4c0-1.5-0.8-2.4-2.5-2.4c-1.7,0-2.4,1-2.4,2.4c0,1.4,1.2,2.1,2.4,2.1
			C478.4,195.5,479.3,194.5,479.3,193.4z M478.8,186.2c0-1.2-0.6-1.9-2-1.9s-2,0.6-2,1.8c0,1.3,0.8,1.9,2,1.9
			S478.8,187.4,478.8,186.2z"/>
		<path class="st4" d="M485.8,181.8h12v2.3c-3.5,4.5-5.4,8.9-7,13.9h-4.1c1.9-4.9,4.3-9.7,7.4-13.3h-8.3V181.8z"/>
		<path class="st4" d="M500.6,194.8h4v3.2h-4V194.8z"/>
		<path class="st4" d="M513.4,189.7c-0.8,0-1.8,0.2-2.4,1.2h-3.1l1.5-9.1h9v3H512l-0.5,3.1c3.3-2.3,8-0.1,8,4.6
			c0,4.2-3.4,5.9-6.5,5.9c-2.4,0-4.2-1-5.5-2.4l1.5-2.5c1.5,1.6,3.1,1.9,3.8,1.9c2.6,0,3.4-1.6,3.4-3
			C516.1,191.2,515.4,189.7,513.4,189.7z"/>
		<path class="st4" d="M521.8,190c0-5.2,2.5-8.4,6.4-8.4c4.1,0,6.5,3.2,6.5,8.4c0,5.2-2.4,8.4-6.5,8.4
			C524.3,198.4,521.8,195.2,521.8,190z M525.4,190c0,2.9,1,5.7,2.8,5.7c1.9,0,2.9-2.8,2.9-5.7c0-2.8-1-5.7-2.9-5.7
			C526.4,184.3,525.4,187.2,525.4,190z"/>
	</g>
	<g>
		<g>
			<polyline class="st10" points="545.7,229 545.7,230 544.7,230 			"/>
			<line class="st15" x1="540.4" y1="230" x2="530.2" y2="230"/>
			<line class="st16" x1="528" y1="230" x2="418.7" y2="230"/>
			<polyline class="st10" points="416.6,230 415.6,230 415.6,229 			"/>
			<line class="st13" x1="415.6" y1="224.1" x2="415.6" y2="212.5"/>
			<line class="st14" x1="415.6" y1="210" x2="415.6" y2="170.1"/>
			<polyline class="st10" points="415.6,167.7 415.6,166.7 416.6,166.7 			"/>
			<line class="st15" x1="420.8" y1="166.7" x2="431.1" y2="166.7"/>
			<line class="st16" x1="433.2" y1="166.7" x2="542.6" y2="166.7"/>
			<polyline class="st10" points="544.7,166.7 545.7,166.7 545.7,167.7 			"/>
			<line class="st13" x1="545.7" y1="172.6" x2="545.7" y2="184.3"/>
			<line class="st14" x1="545.7" y1="186.7" x2="545.7" y2="226.6"/>
		</g>
	</g>
</g>
<g>
	<g>
		<path class="st5" d="M305.4,218.9h-1.9v-8.5h1.9v0.8c0.5-0.8,1.3-0.9,1.7-0.9c1.4,0,2.5,1.1,2.5,3.2c0,2.2-1.2,3.2-2.6,3.2
			c-0.4,0-1.2-0.2-1.6-0.9V218.9z M307.6,213.5c0-0.9-0.3-1.8-1.1-1.8c-0.4,0-1.2,0.1-1.2,1v1.6c0,0.9,0.8,1.1,0.9,1.1
			C307.4,215.3,307.6,214.4,307.6,213.5z"/>
		<path class="st5" d="M310.5,213.5c0-1.8,1.2-3.2,3.1-3.2c2.2,0,3.3,1.7,3.1,3.8h-4.4c0.1,0.8,0.7,1.3,1.8,1.3c0.4,0,1.1,0,1.9-0.5
			l0.4,1.1c-0.5,0.3-1.5,0.7-2.6,0.7C311.6,216.7,310.5,215.2,310.5,213.5z M315,212.9c0-0.7-0.6-1.3-1.4-1.3
			c-0.8,0-1.4,0.5-1.4,1.3H315z"/>
		<path class="st5" d="M321.7,211.8h-0.4c-1.1,0-1.5,0.5-1.5,1.4l0,3.4H318v-6.1h1.8v1.1c0.3-1,1.2-1.3,1.6-1.3h0.3V211.8z"/>
		<path class="st5" d="M326.7,217.3c0.3,0.2,0.9,0.5,1.2-0.2l0.3-0.8c-0.2-0.5-0.4-1-2.6-5.9h2l1.6,4.1l1.5-4.1h2l-3.2,7.4
			c-0.4,1-1.5,1.1-1.8,1.1c-0.3,0-0.7-0.1-1.1-0.3L326.7,217.3z"/>
		<path class="st5" d="M333.2,213.5c0-1.8,1.2-3.2,3.1-3.2c2.2,0,3.3,1.7,3.1,3.8H335c0.1,0.8,0.7,1.3,1.8,1.3c0.4,0,1.1,0,1.9-0.5
			l0.4,1.1c-0.5,0.3-1.5,0.7-2.6,0.7C334.4,216.7,333.2,215.2,333.2,213.5z M337.7,212.9c0-0.7-0.6-1.3-1.4-1.3
			c-0.8,0-1.4,0.5-1.4,1.3H337.7z"/>
		<path class="st5" d="M344,216.6v-0.8c-0.3,0.7-1.3,0.9-1.8,0.9c-0.6,0-1.9-0.5-1.9-2c0-1.3,1.4-2.1,3.8-2.2v-0.1
			c0,0,0.1-0.8-0.9-0.8c-0.5,0-1,0.1-1.4,0.3c-0.2,0.1-0.4,0.2-0.5,0.3l-0.5-1.1c0,0,1.1-0.7,2.7-0.7c0.1,0,2.5-0.1,2.5,2.1v4.2H344
			z M344.1,214.3v-0.8c-1.2,0.1-2,0.6-2,1.1c0,0.4,0.3,0.7,0.7,0.7C343,215.3,344.1,215.2,344.1,214.3z"/>
		<path class="st5" d="M351.2,211.8h-0.4c-1.1,0-1.5,0.5-1.5,1.4l0,3.4h-1.9v-6.1h1.8v1.1c0.3-1,1.2-1.3,1.6-1.3h0.3V211.8z"/>
	</g>
	<g>
		<path class="st7" d="M287.9,193.7V192h7.2v1.7H287.9z M287.9,196.9v-1.7h7.2v1.7H287.9z"/>
	</g>
	<g>
		<g>
			<path class="st4" d="M309,198.5c-0.7-0.1-1.3-0.2-1.9-0.5c-1-0.4-2.5-1-3.6-2l1.3-2.7c1.2,1.1,3.8,2.3,6,2.3
				c1.1,0,2.5-0.5,2.5-1.8c0-0.8-0.6-1.4-1.2-1.6l-4.5-1.8c-2.7-1.1-3.6-2.8-3.6-4.2c0-2.8,2.1-4.5,5-4.9v-2.2h2.6v2.2
				c1.9,0.2,3.2,0.9,4.8,2.1l-1.1,2.5c-2.6-1.6-4.1-1.7-4.9-1.7c-3,0-3.6,2.3-1.2,3.3l4.4,1.7c2.7,1,3.5,2.7,3.5,4.3
				c0,3.1-2.6,4.9-5.5,5.1v2.4H309V198.5z"/>
			<path class="st4" d="M326,198.3v-3h-7.1v-2.6c1.7-3.9,4.5-7.9,7.3-10.6h3.5v10.4h2.2v2.8h-2.2v3L326,198.3z M326,192.5v-5.9
				c-1.9,2-3.2,4.2-3.8,5.9H326z"/>
			<path class="st4" d="M334.1,195.1h4v3.2h-4V195.1z"/>
			<path class="st4" d="M340.8,182.1h12v2.3c-3.5,4.5-5.4,8.9-7,13.9h-4.1c1.9-4.9,4.3-9.7,7.4-13.3h-8.3V182.1z"/>
		</g>
		<g>
			<path class="st4" d="M356.9,191.4l-0.4,6.9h-2.3l0.8-10.1h2.6l2.5,7.4l2.6-7.4h2.6l0.8,10.1h-2.2l-0.4-6.9l-2.3,6.9h-1.8
				L356.9,191.4z"/>
		</g>
	</g>
	<g>
		<g>
			<polyline class="st10" points="377,228.9 377,229.9 376,229.9 			"/>
			<line class="st17" x1="371.4" y1="229.9" x2="360.3" y2="229.9"/>
			<line class="st18" x1="357.9" y1="229.9" x2="279.5" y2="229.9"/>
			<polyline class="st10" points="277.2,229.9 276.2,229.9 276.2,228.9 			"/>
			<line class="st13" x1="276.2" y1="224" x2="276.2" y2="212.3"/>
			<line class="st14" x1="276.2" y1="209.9" x2="276.2" y2="170"/>
			<polyline class="st10" points="276.2,167.6 276.2,166.6 277.2,166.6 			"/>
			<line class="st17" x1="281.8" y1="166.6" x2="293" y2="166.6"/>
			<line class="st18" x1="295.3" y1="166.6" x2="373.7" y2="166.6"/>
			<polyline class="st10" points="376,166.6 377,166.6 377,167.6 			"/>
			<line class="st13" x1="377" y1="172.4" x2="377" y2="184.1"/>
			<line class="st14" x1="377" y1="186.5" x2="377" y2="226.4"/>
		</g>
	</g>
</g>
<g>
	<path class="st7" d="M189.3,124.2V123c-0.7,0-1.4-0.2-1.8-0.5l0.3-0.8c0.4,0.3,1.1,0.5,1.7,0.5c0.9,0,1.4-0.5,1.4-1.2
		c0-0.7-0.5-1.1-1.4-1.4c-1.2-0.5-2-1-2-2.1c0-1,0.7-1.8,1.8-1.9v-1.2h0.7v1.2c0.7,0,1.2,0.2,1.6,0.4l-0.3,0.8
		c-0.3-0.1-0.7-0.4-1.5-0.4c-0.9,0-1.3,0.6-1.3,1c0,0.6,0.4,0.9,1.5,1.4c1.2,0.5,1.9,1.1,1.9,2.2c0,0.9-0.7,1.8-1.9,2v1.2H189.3z"/>
	<path class="st7" d="M197.8,116.1c-0.2,0-0.5,0-0.8,0c-1.7,0.3-2.5,1.5-2.7,2.8h0c0.4-0.5,1-0.9,1.9-0.9c1.4,0,2.4,1,2.4,2.5
		c0,1.4-1,2.7-2.6,2.7c-1.7,0-2.8-1.3-2.8-3.3c0-1.5,0.6-2.7,1.3-3.5c0.6-0.6,1.5-1,2.5-1.2c0.3,0,0.6-0.1,0.8-0.1V116.1z
		 M197.5,120.6c0-1.1-0.6-1.8-1.6-1.8c-0.6,0-1.2,0.4-1.5,1c-0.1,0.1-0.1,0.3-0.1,0.5c0,1.3,0.6,2.2,1.7,2.2
		C196.9,122.5,197.5,121.7,197.5,120.6z"/>
	<path class="st7" d="M204.6,115.4v0.7l-3.4,7.1h-1.1l3.4-6.9v0h-3.8v-0.9H204.6z"/>
	<path class="st7" d="M210.3,116.2h-3l-0.3,2c0.2,0,0.3,0,0.6,0c0.6,0,1.2,0.1,1.7,0.4c0.6,0.3,1.1,1,1.1,2c0,1.5-1.2,2.7-2.9,2.7
		c-0.9,0-1.6-0.2-1.9-0.5l0.3-0.8c0.3,0.2,1,0.4,1.7,0.4c1,0,1.8-0.6,1.8-1.7c0-1-0.7-1.7-2.2-1.7c-0.4,0-0.8,0-1.1,0.1l0.5-3.7h3.7
		V116.2z"/>
	<path class="st7" d="M217,119.2c0,2.7-1,4.1-2.7,4.1c-1.5,0-2.6-1.4-2.6-4c0-2.6,1.1-4.1,2.7-4.1C216,115.2,217,116.7,217,119.2z
		 M212.7,119.3c0,2,0.6,3.2,1.6,3.2c1.1,0,1.6-1.3,1.6-3.3c0-1.9-0.5-3.2-1.6-3.2C213.4,116,212.7,117.2,212.7,119.3z"/>
	<path class="st7" d="M222,115.7c0,0.4-0.3,0.6-0.7,0.6c-0.4,0-0.6-0.3-0.6-0.6c0-0.4,0.3-0.7,0.7-0.7
		C221.8,115.1,222,115.3,222,115.7z M220.8,123.2v-5.8h1.1v5.8H220.8z"/>
	<path class="st7" d="M223.6,118.9c0-0.6,0-1.1,0-1.6h0.9l0.1,1h0c0.3-0.6,1-1.1,1.9-1.1c0.8,0,2.1,0.5,2.1,2.5v3.5h-1.1v-3.3
		c0-0.9-0.3-1.7-1.3-1.7c-0.7,0-1.2,0.5-1.4,1.1c0,0.1-0.1,0.3-0.1,0.5v3.5h-1.1V118.9z"/>
	<path class="st7" d="M232.8,123.2c0-0.4,0-1,0-1.5v-7h1v3.6h0c0.4-0.6,1-1.1,2-1.1c1.4,0,2.5,1.2,2.4,3c0,2.1-1.3,3.1-2.6,3.1
		c-0.8,0-1.5-0.3-1.9-1.1h0l0,1H232.8z M233.9,120.8c0,0.1,0,0.3,0,0.4c0.2,0.7,0.8,1.2,1.6,1.2c1.1,0,1.8-0.9,1.8-2.2
		c0-1.2-0.6-2.2-1.7-2.2c-0.7,0-1.4,0.5-1.6,1.3c0,0.1-0.1,0.3-0.1,0.4V120.8z"/>
	<path class="st7" d="M244.9,120.2c0,2.1-1.5,3.1-2.9,3.1c-1.6,0-2.8-1.2-2.8-3c0-1.9,1.3-3.1,2.9-3.1
		C243.8,117.2,244.9,118.4,244.9,120.2z M240.3,120.3c0,1.3,0.7,2.2,1.8,2.2c1,0,1.8-0.9,1.8-2.3c0-1-0.5-2.2-1.7-2.2
		C240.9,118,240.3,119.2,240.3,120.3z"/>
	<path class="st7" d="M246.3,118.9c0-0.6,0-1.1,0-1.6h0.9l0.1,1h0c0.3-0.6,1-1.1,1.9-1.1c0.8,0,2.1,0.5,2.1,2.5v3.5h-1.1v-3.3
		c0-0.9-0.3-1.7-1.3-1.7c-0.7,0-1.2,0.5-1.4,1.1c0,0.1-0.1,0.3-0.1,0.5v3.5h-1.1V118.9z"/>
	<path class="st7" d="M257.8,121.6c0,0.6,0,1.1,0,1.6h-0.9l-0.1-0.9h0c-0.3,0.5-0.9,1.1-1.9,1.1c-0.9,0-2-0.5-2-2.5v-3.4h1.1v3.2
		c0,1.1,0.3,1.8,1.3,1.8c0.7,0,1.2-0.5,1.4-1c0.1-0.2,0.1-0.3,0.1-0.5v-3.6h1.1V121.6z"/>
	<path class="st7" d="M259.4,122.1c0.3,0.2,0.9,0.4,1.4,0.4c0.8,0,1.1-0.4,1.1-0.9c0-0.5-0.3-0.8-1.1-1.1c-1-0.4-1.5-0.9-1.5-1.6
		c0-0.9,0.8-1.7,2-1.7c0.6,0,1.1,0.2,1.4,0.4l-0.3,0.8c-0.2-0.1-0.6-0.3-1.2-0.3c-0.6,0-1,0.4-1,0.8c0,0.5,0.3,0.7,1.1,1
		c1,0.4,1.5,0.9,1.5,1.8c0,1-0.8,1.7-2.2,1.7c-0.6,0-1.2-0.2-1.6-0.4L259.4,122.1z"/>
	<path class="st7" d="M264.9,120.4c0,1.4,0.9,2,2,2c0.8,0,1.2-0.1,1.6-0.3l0.2,0.8c-0.4,0.2-1,0.4-1.9,0.4c-1.8,0-2.9-1.2-2.9-2.9
		c0-1.8,1-3.1,2.7-3.1c1.9,0,2.4,1.7,2.4,2.7c0,0.2,0,0.4,0,0.5H264.9z M268,119.7c0-0.7-0.3-1.7-1.5-1.7c-1.1,0-1.5,1-1.6,1.7H268z
		"/>
	<path class="st7" d="M270.2,122.1c0.3,0.2,0.9,0.4,1.4,0.4c0.8,0,1.1-0.4,1.1-0.9c0-0.5-0.3-0.8-1.1-1.1c-1-0.4-1.5-0.9-1.5-1.6
		c0-0.9,0.8-1.7,2-1.7c0.6,0,1.1,0.2,1.4,0.4l-0.3,0.8c-0.2-0.1-0.6-0.3-1.2-0.3c-0.6,0-1,0.4-1,0.8c0,0.5,0.3,0.7,1.1,1
		c1,0.4,1.5,0.9,1.5,1.8c0,1-0.8,1.7-2.2,1.7c-0.6,0-1.2-0.2-1.6-0.4L270.2,122.1z"/>
	<path class="st7" d="M278.1,115.3l-1.1,1.5v0l1.8-0.2v0.8l-1.8-0.2v0l1.2,1.4l-0.8,0.4l-0.7-1.7h0l-0.8,1.7l-0.7-0.4l1.1-1.5v0
		l-1.8,0.2v-0.8l1.8,0.2v0l-1.1-1.5l0.7-0.4l0.7,1.7h0l0.7-1.7L278.1,115.3z"/>
</g>
</svg>
