<?xml version="1.0" encoding="utf-8"?>
<!-- Generator: Adobe Illustrator 21.1.0, SVG Export Plug-In . SVG Version: 6.00 Build 0)  -->
<svg version="1.1" id="Layer_1" xmlns="http://www.w3.org/2000/svg" xmlns:xlink="http://www.w3.org/1999/xlink" x="0px" y="0px"
	 viewBox="0 0 458.9 458.9" style="enable-background:new 0 0 458.9 458.9;" xml:space="preserve">
<style type="text/css">
	.st0{fill:#C1DEF1;}
	.st1{fill:#0C3C61;}
	.st2{fill:#F19F53;}
	.st3{fill:#FFFFFF;stroke:#C1DEF1;stroke-width:6.48;stroke-miterlimit:10;}
	.st4{fill:#0C3C61;stroke:#F19F53;stroke-width:7.56;stroke-miterlimit:10;}
	.st5{fill:#FFFFFF;}
	.st6{opacity:0.25;fill:#E9EAEB;}
	.st7{fill:#FBB040;}
</style>
<circle class="st0" cx="229.4" cy="229.4" r="229.4"/>
<circle class="st1" cx="229.4" cy="229.4" r="210.8"/>
<g>
	<path class="st2" d="M71.4,182.5c0.4,0.2,1,0.4,1.6,0.4c0.9,0,1.4-0.5,1.4-1.1c0-0.6-0.4-1-1.3-1.3c-1.1-0.4-1.8-1-1.8-1.9
		c0-1,0.9-1.8,2.2-1.8c0.7,0,1.2,0.2,1.5,0.3l-0.2,0.7c-0.2-0.1-0.7-0.3-1.3-0.3c-0.9,0-1.3,0.5-1.3,1c0,0.6,0.4,0.9,1.3,1.3
		c1.1,0.4,1.7,1,1.7,2c0,1-0.8,1.9-2.4,1.9c-0.6,0-1.4-0.2-1.7-0.4L71.4,182.5z"/>
	<path class="st2" d="M77.3,176.9v6.7h-0.9v-6.7H77.3z"/>
	<path class="st2" d="M80.1,177.6h-2v-0.7h5v0.7H81v6h-0.9V177.6z"/>
	<path class="st2" d="M87.3,180.4h-2.6v2.4h2.9v0.7h-3.8v-6.7h3.6v0.7h-2.8v2.1h2.6V180.4z"/>
	<path class="st2" d="M91.9,181.5l-0.7,2.1h-0.9l2.3-6.7h1l2.3,6.7H95l-0.7-2.1H91.9z M94.1,180.8l-0.7-1.9
		c-0.2-0.4-0.2-0.8-0.4-1.2h0c-0.1,0.4-0.2,0.8-0.3,1.2l-0.7,1.9H94.1z"/>
	<path class="st2" d="M102.4,184.6c-0.9-0.2-1.8-0.5-2.6-0.8c-0.1-0.1-0.3-0.1-0.4-0.1c-1.6-0.1-3-1.2-3-3.4c0-2.2,1.3-3.5,3.1-3.5
		c1.8,0,3,1.4,3,3.4c0,1.7-0.8,2.8-1.9,3.2v0c0.7,0.2,1.4,0.3,2,0.4L102.4,184.6z M101.7,180.2c0-1.3-0.7-2.7-2.1-2.7
		c-1.5,0-2.2,1.4-2.2,2.8c0,1.4,0.8,2.7,2.1,2.7C100.9,183,101.7,181.7,101.7,180.2z"/>
	<path class="st2" d="M104.6,176.9v4c0,1.5,0.7,2.1,1.6,2.1c1,0,1.6-0.7,1.6-2.1v-4h0.9v3.9c0,2.1-1.1,2.9-2.5,2.9
		c-1.4,0-2.4-0.8-2.4-2.9v-4H104.6z"/>
	<path class="st2" d="M111,176.9v6.7h-0.9v-6.7H111z"/>
	<path class="st2" d="M112.4,182.5c0.4,0.2,1,0.4,1.6,0.4c0.9,0,1.4-0.5,1.4-1.1c0-0.6-0.4-1-1.3-1.3c-1.1-0.4-1.8-1-1.8-1.9
		c0-1,0.9-1.8,2.2-1.8c0.7,0,1.2,0.2,1.5,0.3l-0.2,0.7c-0.2-0.1-0.7-0.3-1.3-0.3c-0.9,0-1.3,0.5-1.3,1c0,0.6,0.4,0.9,1.3,1.3
		c1.1,0.4,1.7,1,1.7,2c0,1-0.8,1.9-2.4,1.9c-0.6,0-1.4-0.2-1.7-0.4L112.4,182.5z"/>
	<path class="st2" d="M118.4,176.9v6.7h-0.9v-6.7H118.4z"/>
	<path class="st2" d="M121.2,177.6h-2v-0.7h5v0.7H122v6h-0.9V177.6z"/>
	<path class="st2" d="M125.7,176.9v6.7h-0.9v-6.7H125.7z"/>
	<path class="st2" d="M133,180.2c0,2.3-1.4,3.5-3.1,3.5c-1.8,0-3-1.4-3-3.4c0-2.1,1.3-3.5,3.1-3.5C131.8,176.8,133,178.2,133,180.2z
		 M127.8,180.3c0,1.4,0.8,2.7,2.1,2.7c1.4,0,2.2-1.3,2.2-2.8c0-1.3-0.7-2.7-2.1-2.7C128.5,177.5,127.8,178.8,127.8,180.3z"/>
	<path class="st2" d="M134.1,183.6v-6.7h0.9l2.2,3.4c0.5,0.8,0.9,1.5,1.2,2.2l0,0c-0.1-0.9-0.1-1.7-0.1-2.8v-2.8h0.8v6.7h-0.9
		l-2.1-3.4c-0.5-0.7-0.9-1.5-1.3-2.2l0,0c0.1,0.8,0.1,1.7,0.1,2.8v2.9H134.1z"/>
	<path class="st2" d="M67.6,193.5l-0.7,2.1H66l2.3-6.7h1l2.3,6.7h-0.9l-0.7-2.1H67.6z M69.8,192.8l-0.7-1.9
		c-0.2-0.4-0.2-0.8-0.4-1.2h0c-0.1,0.4-0.2,0.8-0.3,1.2l-0.7,1.9H69.8z"/>
	<path class="st2" d="M72.6,195.6v-6.7h0.9l2.2,3.4c0.5,0.8,0.9,1.5,1.2,2.2l0,0c-0.1-0.9-0.1-1.7-0.1-2.8v-2.8h0.8v6.7h-0.9
		l-2.1-3.4c-0.5-0.7-0.9-1.5-1.3-2.2l0,0c0.1,0.8,0.1,1.7,0.1,2.8v2.9H72.6z"/>
	<path class="st2" d="M79.2,189c0.5-0.1,1.2-0.1,1.8-0.1c1.2,0,2.1,0.3,2.7,0.8c0.6,0.5,0.9,1.3,0.9,2.4c0,1.1-0.3,2-1,2.6
		c-0.6,0.6-1.7,1-3,1c-0.6,0-1.1,0-1.6-0.1V189z M80,194.9c0.2,0,0.5,0,0.9,0c1.9,0,2.9-1,2.9-2.9c0-1.6-0.9-2.6-2.7-2.6
		c-0.4,0-0.8,0-1,0.1V194.9z"/>
	<path class="st2" d="M87.9,188.9c0.4-0.1,1-0.1,1.7-0.1c0.9,0,1.5,0.2,1.9,0.6c0.4,0.3,0.6,0.8,0.6,1.4c0,0.6-0.2,1.1-0.5,1.4
		c-0.5,0.5-1.2,0.7-2.1,0.7c-0.3,0-0.5,0-0.7-0.1v2.7h-0.9V188.9z M88.8,192.2c0.2,0.1,0.4,0.1,0.7,0.1c1,0,1.7-0.5,1.7-1.4
		c0-0.9-0.6-1.3-1.6-1.3c-0.4,0-0.7,0-0.8,0.1V192.2z"/>
	<path class="st2" d="M93.3,189c0.4-0.1,1.1-0.1,1.7-0.1c0.9,0,1.5,0.2,1.9,0.5c0.3,0.3,0.5,0.8,0.5,1.3c0,0.9-0.6,1.5-1.3,1.7v0
		c0.5,0.2,0.8,0.7,1,1.4c0.2,0.9,0.4,1.6,0.5,1.8h-0.9c-0.1-0.2-0.3-0.8-0.5-1.6c-0.2-0.9-0.6-1.3-1.3-1.3h-0.8v2.9h-0.9V189z
		 M94.1,192H95c0.9,0,1.5-0.5,1.5-1.3c0-0.9-0.6-1.2-1.5-1.3c-0.4,0-0.7,0-0.9,0.1V192z"/>
	<path class="st2" d="M102.1,192.4h-2.6v2.4h2.9v0.7h-3.8v-6.7h3.6v0.7h-2.8v2.1h2.6V192.4z"/>
	<path class="st2" d="M103.6,188.9c0.4-0.1,1-0.1,1.7-0.1c0.9,0,1.5,0.2,1.9,0.6c0.4,0.3,0.6,0.8,0.6,1.4c0,0.6-0.2,1.1-0.5,1.4
		c-0.5,0.5-1.2,0.7-2.1,0.7c-0.3,0-0.5,0-0.7-0.1v2.7h-0.9V188.9z M104.4,192.2c0.2,0.1,0.4,0.1,0.7,0.1c1,0,1.7-0.5,1.7-1.4
		c0-0.9-0.6-1.3-1.6-1.3c-0.4,0-0.7,0-0.8,0.1V192.2z"/>
	<path class="st2" d="M109.1,193.5l-0.7,2.1h-0.9l2.3-6.7h1l2.3,6.7h-0.9l-0.7-2.1H109.1z M111.3,192.8l-0.7-1.9
		c-0.2-0.4-0.2-0.8-0.4-1.2h0c-0.1,0.4-0.2,0.8-0.3,1.2l-0.7,1.9H111.3z"/>
	<path class="st2" d="M114.2,189c0.4-0.1,1.1-0.1,1.7-0.1c0.9,0,1.5,0.2,1.9,0.5c0.3,0.3,0.5,0.8,0.5,1.3c0,0.9-0.6,1.5-1.3,1.7v0
		c0.5,0.2,0.8,0.7,1,1.4c0.2,0.9,0.4,1.6,0.5,1.8h-0.9c-0.1-0.2-0.3-0.8-0.5-1.6c-0.2-0.9-0.6-1.3-1.3-1.3H115v2.9h-0.9V189z
		 M115,192h0.9c0.9,0,1.5-0.5,1.5-1.3c0-0.9-0.6-1.2-1.5-1.3c-0.4,0-0.7,0-0.9,0.1V192z"/>
	<path class="st2" d="M120.7,193.5l-0.7,2.1h-0.9l2.3-6.7h1l2.3,6.7h-0.9l-0.7-2.1H120.7z M122.9,192.8l-0.7-1.9
		c-0.2-0.4-0.2-0.8-0.4-1.2h0c-0.1,0.4-0.2,0.8-0.3,1.2l-0.7,1.9H122.9z"/>
	<path class="st2" d="M126.2,189.6h-2v-0.7h5v0.7h-2.1v6h-0.9V189.6z"/>
	<path class="st2" d="M130.8,188.9v6.7h-0.9v-6.7H130.8z"/>
	<path class="st2" d="M138.1,192.2c0,2.3-1.4,3.5-3.1,3.5c-1.8,0-3-1.4-3-3.4c0-2.1,1.3-3.5,3.1-3.5
		C136.9,188.8,138.1,190.2,138.1,192.2z M132.8,192.3c0,1.4,0.8,2.7,2.1,2.7c1.4,0,2.2-1.3,2.2-2.8c0-1.3-0.7-2.7-2.1-2.7
		C133.6,189.5,132.8,190.8,132.8,192.3z"/>
	<path class="st2" d="M139.2,195.6v-6.7h0.9l2.2,3.4c0.5,0.8,0.9,1.5,1.2,2.2l0,0c-0.1-0.9-0.1-1.7-0.1-2.8v-2.8h0.8v6.7h-0.9
		l-2.1-3.4c-0.5-0.7-0.9-1.5-1.3-2.2l0,0c0.1,0.8,0.1,1.7,0.1,2.8v2.9H139.2z"/>
</g>
<g>
	<path class="st2" d="M256.6,135.8v6.7h-0.9v-6.7H256.6z"/>
	<path class="st2" d="M258.2,142.5v-6.7h0.9l2.2,3.4c0.5,0.8,0.9,1.5,1.2,2.2l0,0c-0.1-0.9-0.1-1.7-0.1-2.8v-2.8h0.8v6.7h-0.9
		l-2.1-3.4c-0.5-0.7-0.9-1.5-1.3-2.2l0,0c0.1,0.8,0.1,1.7,0.1,2.8v2.9H258.2z"/>
	<path class="st2" d="M264.7,135.8h3.6v0.7h-2.8v2.2h2.5v0.7h-2.5v3h-0.9V135.8z"/>
	<path class="st2" d="M269.6,135.9c0.4-0.1,1.1-0.1,1.7-0.1c0.9,0,1.5,0.2,1.9,0.5c0.3,0.3,0.5,0.8,0.5,1.3c0,0.9-0.6,1.5-1.3,1.7v0
		c0.5,0.2,0.8,0.7,1,1.4c0.2,0.9,0.4,1.6,0.5,1.8h-0.9c-0.1-0.2-0.3-0.8-0.5-1.6c-0.2-0.9-0.6-1.3-1.3-1.3h-0.8v2.9h-0.9V135.9z
		 M270.5,138.9h0.9c0.9,0,1.5-0.5,1.5-1.3c0-0.9-0.6-1.2-1.5-1.3c-0.4,0-0.7,0-0.9,0.1V138.9z"/>
	<path class="st2" d="M276.1,140.4l-0.7,2.1h-0.9l2.3-6.7h1l2.3,6.7h-0.9l-0.7-2.1H276.1z M278.3,139.7l-0.7-1.9
		c-0.2-0.4-0.2-0.8-0.4-1.2h0c-0.1,0.4-0.2,0.8-0.3,1.2l-0.7,1.9H278.3z"/>
	<path class="st2" d="M281,141.4c0.4,0.2,1,0.4,1.6,0.4c0.9,0,1.4-0.5,1.4-1.1c0-0.6-0.4-1-1.3-1.3c-1.1-0.4-1.8-1-1.8-1.9
		c0-1,0.9-1.8,2.2-1.8c0.7,0,1.2,0.2,1.5,0.3l-0.2,0.7c-0.2-0.1-0.7-0.3-1.3-0.3c-0.9,0-1.3,0.5-1.3,1c0,0.6,0.4,0.9,1.3,1.3
		c1.1,0.4,1.7,1,1.7,2c0,1-0.8,1.9-2.4,1.9c-0.6,0-1.4-0.2-1.7-0.4L281,141.4z"/>
	<path class="st2" d="M287.4,136.5h-2v-0.7h5v0.7h-2.1v6h-0.9V136.5z"/>
	<path class="st2" d="M291.1,135.9c0.4-0.1,1.1-0.1,1.7-0.1c0.9,0,1.5,0.2,1.9,0.5c0.3,0.3,0.5,0.8,0.5,1.3c0,0.9-0.6,1.5-1.3,1.7v0
		c0.5,0.2,0.8,0.7,1,1.4c0.2,0.9,0.4,1.6,0.5,1.8h-0.9c-0.1-0.2-0.3-0.8-0.5-1.6c-0.2-0.9-0.6-1.3-1.3-1.3h-0.8v2.9h-0.9V135.9z
		 M291.9,138.9h0.9c0.9,0,1.5-0.5,1.5-1.3c0-0.9-0.6-1.2-1.5-1.3c-0.4,0-0.7,0-0.9,0.1V138.9z"/>
	<path class="st2" d="M297.3,135.8v4c0,1.5,0.7,2.1,1.6,2.1c1,0,1.6-0.7,1.6-2.1v-4h0.9v3.9c0,2.1-1.1,2.9-2.5,2.9
		c-1.4,0-2.4-0.8-2.4-2.9v-4H297.3z"/>
	<path class="st2" d="M307.6,142.3c-0.3,0.2-1,0.3-1.8,0.3c-1.9,0-3.3-1.2-3.3-3.4c0-2.1,1.4-3.5,3.5-3.5c0.8,0,1.4,0.2,1.6,0.3
		l-0.2,0.7c-0.3-0.2-0.8-0.3-1.4-0.3c-1.6,0-2.6,1-2.6,2.8c0,1.6,0.9,2.7,2.6,2.7c0.5,0,1.1-0.1,1.4-0.3L307.6,142.3z"/>
	<path class="st2" d="M310.3,136.5h-2v-0.7h5v0.7h-2.1v6h-0.9V136.5z"/>
	<path class="st2" d="M314.8,135.8v4c0,1.5,0.7,2.1,1.6,2.1c1,0,1.6-0.7,1.6-2.1v-4h0.9v3.9c0,2.1-1.1,2.9-2.5,2.9
		c-1.4,0-2.4-0.8-2.4-2.9v-4H314.8z"/>
	<path class="st2" d="M320.4,135.9c0.4-0.1,1.1-0.1,1.7-0.1c0.9,0,1.5,0.2,1.9,0.5c0.3,0.3,0.5,0.8,0.5,1.3c0,0.9-0.6,1.5-1.3,1.7v0
		c0.5,0.2,0.8,0.7,1,1.4c0.2,0.9,0.4,1.6,0.5,1.8h-0.9c-0.1-0.2-0.3-0.8-0.5-1.6c-0.2-0.9-0.6-1.3-1.3-1.3h-0.8v2.9h-0.9V135.9z
		 M321.3,138.9h0.9c0.9,0,1.5-0.5,1.5-1.3c0-0.9-0.6-1.2-1.5-1.3c-0.4,0-0.7,0-0.9,0.1V138.9z"/>
	<path class="st2" d="M329.3,139.3h-2.6v2.4h2.9v0.7h-3.8v-6.7h3.6v0.7h-2.8v2.1h2.6V139.3z"/>
	<path class="st2" d="M284.3,154.3c-0.3,0.2-1,0.3-1.8,0.3c-1.9,0-3.3-1.2-3.3-3.4c0-2.1,1.4-3.5,3.5-3.5c0.8,0,1.4,0.2,1.6,0.3
		l-0.2,0.7c-0.3-0.2-0.8-0.3-1.4-0.3c-1.6,0-2.6,1-2.6,2.8c0,1.6,0.9,2.7,2.6,2.7c0.5,0,1.1-0.1,1.4-0.3L284.3,154.3z"/>
	<path class="st2" d="M291,151.1c0,2.3-1.4,3.5-3.1,3.5c-1.8,0-3-1.4-3-3.4c0-2.1,1.3-3.5,3.1-3.5C289.8,147.7,291,149.1,291,151.1z
		 M285.7,151.2c0,1.4,0.8,2.7,2.1,2.7c1.4,0,2.2-1.3,2.2-2.8c0-1.3-0.7-2.7-2.1-2.7C286.5,148.4,285.7,149.7,285.7,151.2z"/>
	<path class="st2" d="M292,153.4c0.4,0.2,1,0.4,1.6,0.4c0.9,0,1.4-0.5,1.4-1.1c0-0.6-0.4-1-1.3-1.3c-1.1-0.4-1.8-1-1.8-1.9
		c0-1,0.9-1.8,2.2-1.8c0.7,0,1.2,0.2,1.5,0.3l-0.2,0.7c-0.2-0.1-0.7-0.3-1.3-0.3c-0.9,0-1.3,0.5-1.3,1c0,0.6,0.4,0.9,1.3,1.3
		c1.1,0.4,1.7,1,1.7,2c0,1-0.8,1.9-2.4,1.9c-0.6,0-1.4-0.2-1.7-0.4L292,153.4z"/>
	<path class="st2" d="M298.3,148.5h-2v-0.7h5v0.7h-2.1v6h-0.9V148.5z"/>
	<path class="st2" d="M301.8,153.4c0.4,0.2,1,0.4,1.6,0.4c0.9,0,1.4-0.5,1.4-1.1c0-0.6-0.4-1-1.3-1.3c-1.1-0.4-1.8-1-1.8-1.9
		c0-1,0.9-1.8,2.2-1.8c0.7,0,1.2,0.2,1.5,0.3l-0.2,0.7c-0.2-0.1-0.7-0.3-1.3-0.3c-0.9,0-1.3,0.5-1.3,1c0,0.6,0.4,0.9,1.3,1.3
		c1.1,0.4,1.7,1,1.7,2c0,1-0.8,1.9-2.4,1.9c-0.6,0-1.4-0.2-1.7-0.4L301.8,153.4z"/>
</g>
<g>
	<path class="st2" d="M354.6,265.9c0.4,0.2,1,0.4,1.6,0.4c0.9,0,1.4-0.5,1.4-1.1c0-0.6-0.4-1-1.3-1.3c-1.1-0.4-1.8-1-1.8-1.9
		c0-1,0.9-1.8,2.2-1.8c0.7,0,1.2,0.2,1.5,0.3l-0.2,0.7c-0.2-0.1-0.7-0.3-1.3-0.3c-0.9,0-1.3,0.5-1.3,1c0,0.6,0.4,0.9,1.3,1.3
		c1.1,0.4,1.7,1,1.7,2c0,1-0.8,1.9-2.4,1.9c-0.6,0-1.4-0.2-1.7-0.4L354.6,265.9z"/>
	<path class="st2" d="M365.4,263.5c0,2.3-1.4,3.5-3.1,3.5c-1.8,0-3-1.4-3-3.4c0-2.1,1.3-3.5,3.1-3.5
		C364.2,260.1,365.4,261.5,365.4,263.5z M360.1,263.6c0,1.4,0.8,2.7,2.1,2.7c1.4,0,2.2-1.3,2.2-2.8c0-1.3-0.7-2.7-2.1-2.7
		C360.9,260.8,360.1,262.2,360.1,263.6z"/>
	<path class="st2" d="M366.5,260.2h3.6v0.7h-2.8v2.2h2.5v0.7h-2.5v3h-0.9V260.2z"/>
	<path class="st2" d="M372.6,261h-2v-0.7h5v0.7h-2.1v6h-0.9V261z"/>
	<path class="st2" d="M383.2,266.7c-0.3,0.2-1,0.3-1.8,0.3c-1.9,0-3.3-1.2-3.3-3.4c0-2.1,1.4-3.5,3.5-3.5c0.8,0,1.4,0.2,1.6,0.3
		l-0.2,0.7c-0.3-0.2-0.8-0.3-1.4-0.3c-1.6,0-2.6,1-2.6,2.8c0,1.6,0.9,2.7,2.6,2.7c0.5,0,1.1-0.1,1.4-0.3L383.2,266.7z"/>
	<path class="st2" d="M389.8,263.5c0,2.3-1.4,3.5-3.1,3.5c-1.8,0-3-1.4-3-3.4c0-2.1,1.3-3.5,3.1-3.5
		C388.6,260.1,389.8,261.5,389.8,263.5z M384.6,263.6c0,1.4,0.8,2.7,2.1,2.7c1.4,0,2.2-1.3,2.2-2.8c0-1.3-0.7-2.7-2.1-2.7
		C385.3,260.8,384.6,262.2,384.6,263.6z"/>
	<path class="st2" d="M390.8,265.9c0.4,0.2,1,0.4,1.6,0.4c0.9,0,1.4-0.5,1.4-1.1c0-0.6-0.4-1-1.3-1.3c-1.1-0.4-1.8-1-1.8-1.9
		c0-1,0.9-1.8,2.2-1.8c0.7,0,1.2,0.2,1.5,0.3l-0.2,0.7c-0.2-0.1-0.7-0.3-1.3-0.3c-0.9,0-1.3,0.5-1.3,1c0,0.6,0.4,0.9,1.3,1.3
		c1.1,0.4,1.7,1,1.7,2c0,1-0.8,1.9-2.4,1.9c-0.6,0-1.4-0.2-1.7-0.4L390.8,265.9z"/>
	<path class="st2" d="M397.1,261h-2v-0.7h5v0.7H398v6h-0.9V261z"/>
	<path class="st2" d="M400.7,265.9c0.4,0.2,1,0.4,1.6,0.4c0.9,0,1.4-0.5,1.4-1.1c0-0.6-0.4-1-1.3-1.3c-1.1-0.4-1.8-1-1.8-1.9
		c0-1,0.9-1.8,2.2-1.8c0.7,0,1.2,0.2,1.5,0.3l-0.2,0.7c-0.2-0.1-0.7-0.3-1.3-0.3c-0.9,0-1.3,0.5-1.3,1c0,0.6,0.4,0.9,1.3,1.3
		c1.1,0.4,1.7,1,1.7,2c0,1-0.8,1.9-2.4,1.9c-0.6,0-1.4-0.2-1.7-0.4L400.7,265.9z"/>
</g>
<g>
	<path class="st2" d="M269.6,371.4c0.4-0.1,1-0.1,1.6-0.1c0.9,0,1.4,0.1,1.8,0.5c0.4,0.3,0.6,0.7,0.6,1.2c0,0.6-0.4,1.2-1.1,1.5v0
		c0.6,0.2,1.4,0.7,1.4,1.7c0,0.6-0.2,1-0.6,1.3c-0.5,0.4-1.2,0.6-2.3,0.6c-0.6,0-1.1,0-1.3-0.1V371.4z M270.5,374.1h0.8
		c0.9,0,1.5-0.5,1.5-1.1c0-0.8-0.6-1.1-1.5-1.1c-0.4,0-0.6,0-0.8,0.1V374.1z M270.5,377.4c0.2,0,0.4,0,0.7,0c0.9,0,1.7-0.3,1.7-1.3
		c0-0.9-0.8-1.3-1.7-1.3h-0.7V377.4z"/>
	<path class="st2" d="M275.9,371.3v4c0,1.5,0.7,2.1,1.6,2.1c1,0,1.6-0.7,1.6-2.1v-4h0.9v3.9c0,2.1-1.1,2.9-2.5,2.9
		c-1.4,0-2.4-0.8-2.4-2.9v-4H275.9z"/>
	<path class="st2" d="M282.4,371.3v6.7h-0.9v-6.7H282.4z"/>
	<path class="st2" d="M283.9,371.3h0.9v6h2.9v0.7h-3.7V371.3z"/>
	<path class="st2" d="M288.6,371.4c0.5-0.1,1.2-0.1,1.8-0.1c1.2,0,2.1,0.3,2.7,0.8c0.6,0.5,0.9,1.3,0.9,2.4c0,1.1-0.3,2-1,2.6
		c-0.6,0.6-1.7,1-3,1c-0.6,0-1.1,0-1.6-0.1V371.4z M289.5,377.3c0.2,0,0.5,0,0.9,0c1.9,0,2.9-1,2.9-2.9c0-1.6-0.9-2.6-2.7-2.6
		c-0.4,0-0.8,0-1,0.1V377.3z"/>
	<path class="st2" d="M296.2,371.3v6.7h-0.9v-6.7H296.2z"/>
	<path class="st2" d="M297.7,378v-6.7h0.9l2.2,3.4c0.5,0.8,0.9,1.5,1.2,2.2l0,0c-0.1-0.9-0.1-1.7-0.1-2.8v-2.8h0.8v6.7h-0.9
		l-2.1-3.4c-0.5-0.8-0.9-1.5-1.3-2.2l0,0c0.1,0.8,0.1,1.7,0.1,2.8v2.9H297.7z"/>
	<path class="st2" d="M309.4,377.7c-0.4,0.1-1.2,0.4-2.1,0.4c-1,0-1.9-0.3-2.5-0.9c-0.6-0.6-0.9-1.5-0.9-2.5c0-2,1.4-3.5,3.6-3.5
		c0.8,0,1.4,0.2,1.7,0.3l-0.2,0.7c-0.4-0.2-0.8-0.3-1.5-0.3c-1.6,0-2.7,1-2.7,2.7c0,1.7,1,2.7,2.6,2.7c0.6,0,1-0.1,1.2-0.2v-2h-1.4
		v-0.7h2.2V377.7z"/>
	<path class="st2" d="M261,389.8c-0.3,0.2-1,0.3-1.8,0.3c-1.9,0-3.3-1.2-3.3-3.4c0-2.1,1.4-3.5,3.5-3.5c0.8,0,1.4,0.2,1.6,0.3
		l-0.2,0.7c-0.3-0.2-0.8-0.3-1.4-0.3c-1.6,0-2.6,1-2.6,2.8c0,1.6,0.9,2.7,2.6,2.7c0.5,0,1.1-0.1,1.4-0.3L261,389.8z"/>
	<path class="st2" d="M267.7,386.6c0,2.3-1.4,3.5-3.1,3.5c-1.8,0-3-1.4-3-3.4c0-2.1,1.3-3.5,3.1-3.5
		C266.5,383.2,267.7,384.6,267.7,386.6z M262.4,386.7c0,1.4,0.8,2.7,2.1,2.7c1.4,0,2.2-1.3,2.2-2.8c0-1.3-0.7-2.7-2.1-2.7
		C263.2,383.9,262.4,385.2,262.4,386.7z"/>
	<path class="st2" d="M268.8,390v-6.7h0.9l2.2,3.4c0.5,0.8,0.9,1.5,1.2,2.2l0,0c-0.1-0.9-0.1-1.7-0.1-2.8v-2.8h0.8v6.7H273l-2.1-3.4
		c-0.5-0.8-0.9-1.5-1.3-2.2l0,0c0.1,0.8,0.1,1.7,0.1,2.8v2.9H268.8z"/>
	<path class="st2" d="M275.3,389c0.4,0.2,1,0.4,1.6,0.4c0.9,0,1.4-0.5,1.4-1.1c0-0.6-0.4-1-1.3-1.3c-1.1-0.4-1.8-1-1.8-1.9
		c0-1,0.9-1.8,2.2-1.8c0.7,0,1.2,0.2,1.5,0.3l-0.2,0.7c-0.2-0.1-0.7-0.3-1.3-0.3c-0.9,0-1.3,0.5-1.3,1c0,0.6,0.4,0.9,1.3,1.3
		c1.1,0.4,1.7,1,1.7,2c0,1-0.8,1.9-2.4,1.9c-0.6,0-1.4-0.2-1.7-0.4L275.3,389z"/>
	<path class="st2" d="M281.6,384h-2v-0.7h5v0.7h-2.1v6h-0.9V384z"/>
	<path class="st2" d="M285.3,383.4c0.4-0.1,1.1-0.1,1.7-0.1c0.9,0,1.5,0.2,1.9,0.5c0.3,0.3,0.5,0.8,0.5,1.3c0,0.9-0.6,1.5-1.3,1.7v0
		c0.5,0.2,0.8,0.7,1,1.4c0.2,0.9,0.4,1.6,0.5,1.8h-0.9c-0.1-0.2-0.3-0.8-0.5-1.6c-0.2-0.9-0.6-1.3-1.3-1.3h-0.8v2.9h-0.9V383.4z
		 M286.1,386.4h0.9c0.9,0,1.5-0.5,1.5-1.3c0-0.9-0.6-1.2-1.5-1.3c-0.4,0-0.7,0-0.9,0.1V386.4z"/>
	<path class="st2" d="M291.5,383.3v4c0,1.5,0.7,2.1,1.6,2.1c1,0,1.6-0.7,1.6-2.1v-4h0.9v3.9c0,2.1-1.1,2.9-2.5,2.9
		c-1.4,0-2.4-0.8-2.4-2.9v-4H291.5z"/>
	<path class="st2" d="M301.8,389.8c-0.3,0.2-1,0.3-1.8,0.3c-1.9,0-3.3-1.2-3.3-3.4c0-2.1,1.4-3.5,3.5-3.5c0.8,0,1.4,0.2,1.6,0.3
		l-0.2,0.7c-0.3-0.2-0.8-0.3-1.4-0.3c-1.6,0-2.6,1-2.6,2.8c0,1.6,0.9,2.7,2.6,2.7c0.5,0,1.1-0.1,1.4-0.3L301.8,389.8z"/>
	<path class="st2" d="M304.5,384h-2v-0.7h5v0.7h-2.1v6h-0.9V384z"/>
	<path class="st2" d="M309,383.3v6.7h-0.9v-6.7H309z"/>
	<path class="st2" d="M316.3,386.6c0,2.3-1.4,3.5-3.1,3.5c-1.8,0-3-1.4-3-3.4c0-2.1,1.3-3.5,3.1-3.5
		C315.1,383.2,316.3,384.6,316.3,386.6z M311.1,386.7c0,1.4,0.8,2.7,2.1,2.7c1.4,0,2.2-1.3,2.2-2.8c0-1.3-0.7-2.7-2.1-2.7
		C311.8,383.9,311.1,385.2,311.1,386.7z"/>
	<path class="st2" d="M317.5,390v-6.7h0.9l2.2,3.4c0.5,0.8,0.9,1.5,1.2,2.2l0,0c-0.1-0.9-0.1-1.7-0.1-2.8v-2.8h0.8v6.7h-0.9
		l-2.1-3.4c-0.5-0.8-0.9-1.5-1.3-2.2l0,0c0.1,0.8,0.1,1.7,0.1,2.8v2.9H317.5z"/>
</g>
<g>
	<path class="st2" d="M89.8,332.5h3.6v0.7h-2.8v2.2h2.5v0.7h-2.5v3h-0.9V332.5z"/>
	<path class="st2" d="M94.7,332.5h3.6v0.7h-2.8v2.2h2.5v0.7h-2.5v3h-0.9V332.5z"/>
	<path class="st2" d="M103.7,339.2c-0.2-0.2-0.4-0.4-0.6-0.7c-0.6,0.5-1.2,0.8-2,0.8c-1.3,0-2.1-0.9-2.1-1.9c0-0.9,0.5-1.5,1.3-2v0
		c-0.3-0.4-0.6-0.9-0.6-1.4c0-0.8,0.6-1.7,1.7-1.7c0.8,0,1.5,0.6,1.5,1.4c0,0.7-0.4,1.3-1.5,1.8v0c0.6,0.7,1.2,1.4,1.6,1.9
		c0.3-0.5,0.5-1.1,0.6-2h0.8c-0.2,1.1-0.5,1.9-1,2.5c0.4,0.4,0.7,0.8,1.1,1.2H103.7z M102.7,338c-0.4-0.4-1.1-1.3-1.9-2.1
		c-0.4,0.2-0.9,0.7-0.9,1.4c0,0.8,0.6,1.4,1.4,1.4C101.9,338.7,102.4,338.4,102.7,338z M100.6,333.9c0,0.5,0.2,0.8,0.5,1.2
		c0.7-0.4,1.1-0.8,1.1-1.3c0-0.4-0.2-0.9-0.8-0.9C100.9,333,100.6,333.4,100.6,333.9z"/>
	<path class="st2" d="M109.1,336h-2.6v2.4h2.9v0.7h-3.8v-6.7h3.6v0.7h-2.8v2.1h2.6V336z"/>
	<path class="st2" d="M113.7,337.1l-0.7,2.1h-0.9l2.3-6.7h1l2.3,6.7h-0.9l-0.7-2.1H113.7z M115.9,336.4l-0.7-1.9
		c-0.2-0.4-0.2-0.8-0.4-1.2h0c-0.1,0.4-0.2,0.8-0.3,1.2l-0.7,1.9H115.9z"/>
	<path class="st2" d="M118.7,339.2v-6.7h0.9l2.2,3.4c0.5,0.8,0.9,1.5,1.2,2.2l0,0c-0.1-0.9-0.1-1.7-0.1-2.8v-2.8h0.8v6.7h-0.9
		l-2.1-3.4c-0.5-0.8-0.9-1.5-1.3-2.2l0,0c0.1,0.8,0.1,1.7,0.1,2.8v2.9H118.7z"/>
	<path class="st2" d="M125.3,332.6c0.5-0.1,1.2-0.1,1.8-0.1c1.2,0,2.1,0.3,2.7,0.8c0.6,0.5,0.9,1.3,0.9,2.4c0,1.1-0.3,2-1,2.6
		c-0.6,0.6-1.7,1-3,1c-0.6,0-1.1,0-1.6-0.1V332.6z M126.2,338.5c0.2,0,0.5,0,0.9,0c1.9,0,2.9-1,2.9-2.9c0-1.6-0.9-2.6-2.7-2.6
		c-0.4,0-0.8,0-1,0.1V338.5z"/>
	<path class="st2" d="M84.1,344.6c0.4-0.1,1.1-0.1,1.7-0.1c0.9,0,1.5,0.2,1.9,0.5c0.3,0.3,0.5,0.8,0.5,1.3c0,0.9-0.6,1.5-1.3,1.7v0
		c0.5,0.2,0.8,0.7,1,1.4c0.2,0.9,0.4,1.6,0.5,1.8h-0.9c-0.1-0.2-0.3-0.8-0.5-1.6c-0.2-0.9-0.6-1.3-1.3-1.3H85v2.9h-0.9V344.6z
		 M85,347.6h0.9c0.9,0,1.5-0.5,1.5-1.3c0-0.9-0.6-1.2-1.5-1.3c-0.4,0-0.7,0-0.9,0.1V347.6z"/>
	<path class="st2" d="M93,348h-2.6v2.4h2.9v0.7h-3.8v-6.7h3.6v0.7h-2.8v2.1H93V348z"/>
	<path class="st2" d="M94.4,344.5h0.9v6h2.9v0.7h-3.7V344.5z"/>
	<path class="st2" d="M104.5,347.8c0,2.3-1.4,3.5-3.1,3.5c-1.8,0-3-1.4-3-3.4c0-2.1,1.3-3.5,3.1-3.5
		C103.3,344.4,104.5,345.8,104.5,347.8z M99.3,347.9c0,1.4,0.8,2.7,2.1,2.7c1.4,0,2.2-1.3,2.2-2.8c0-1.3-0.7-2.7-2.1-2.7
		C100,345.1,99.3,346.4,99.3,347.9z"/>
	<path class="st2" d="M110.3,351c-0.3,0.2-1,0.3-1.8,0.3c-1.9,0-3.3-1.2-3.3-3.4c0-2.1,1.4-3.5,3.5-3.5c0.8,0,1.4,0.2,1.6,0.3
		l-0.2,0.7c-0.3-0.2-0.8-0.3-1.4-0.3c-1.6,0-2.6,1-2.6,2.8c0,1.6,0.9,2.7,2.6,2.7c0.5,0,1.1-0.1,1.4-0.3L110.3,351z"/>
	<path class="st2" d="M112.6,349.1l-0.7,2.1H111l2.3-6.7h1l2.3,6.7h-0.9l-0.7-2.1H112.6z M114.8,348.4l-0.7-1.9
		c-0.2-0.4-0.2-0.8-0.4-1.2h0c-0.1,0.4-0.2,0.8-0.3,1.2l-0.7,1.9H114.8z"/>
	<path class="st2" d="M118.1,345.2h-2v-0.7h5v0.7H119v6h-0.9V345.2z"/>
	<path class="st2" d="M122.7,344.5v6.7h-0.9v-6.7H122.7z"/>
	<path class="st2" d="M129.9,347.8c0,2.3-1.4,3.5-3.1,3.5c-1.8,0-3-1.4-3-3.4c0-2.1,1.3-3.5,3.1-3.5
		C128.8,344.4,129.9,345.8,129.9,347.8z M124.7,347.9c0,1.4,0.8,2.7,2.1,2.7c1.4,0,2.2-1.3,2.2-2.8c0-1.3-0.7-2.7-2.1-2.7
		C125.4,345.1,124.7,346.4,124.7,347.9z"/>
	<path class="st2" d="M131.1,351.2v-6.7h0.9l2.2,3.4c0.5,0.8,0.9,1.5,1.2,2.2l0,0c-0.1-0.9-0.1-1.7-0.1-2.8v-2.8h0.8v6.7h-0.9
		l-2.1-3.4c-0.5-0.8-0.9-1.5-1.3-2.2l0,0c0.1,0.8,0.1,1.7,0.1,2.8v2.9H131.1z"/>
</g>
<path class="st3" d="M203.7,183.8"/>
<path class="st3" d="M217.1,160.3"/>
<path class="st3" d="M228.2,159.2"/>
<path class="st3" d="M248.7,176.8"/>
<g>
	<g>
		<path class="st4" d="M288.7,260.7L189.4,273c-6.5,0.8-12.6-3.9-13.4-10.4l-5.3-42.7c-0.8-6.5,3.9-12.6,10.4-13.4l99.2-12.3
			c6.5-0.8,12.6,3.9,13.4,10.4l5.3,42.7C299.9,253.8,295.2,259.8,288.7,260.7z"/>
		<g>
			<path class="st5" d="M215.2,223.5c-0.5,0.2-1.4,0.7-2.6,0.8c-1.3,0.2-2.4,0-3.4-0.7c-0.8-0.6-1.4-1.7-1.6-3.1
				c-0.3-2.6,1.2-4.7,4.2-5.1c1-0.1,1.8,0,2.2,0.1l-0.2,0.9c-0.5-0.1-1.1-0.2-2-0.1c-2.1,0.3-3.3,1.7-3.1,3.9
				c0.3,2.2,1.8,3.3,3.8,3.1c0.7-0.1,1.2-0.3,1.5-0.4l-0.3-2.6l-1.8,0.2l-0.1-0.9l2.9-0.4L215.2,223.5z"/>
			<path class="st5" d="M215.9,215.1c0.6-0.2,1.4-0.4,2.1-0.4c1.2-0.1,2,0,2.6,0.4c0.5,0.3,0.8,0.9,0.9,1.6c0.1,1.1-0.5,2-1.4,2.4
				l0,0c0.7,0.1,1.2,0.7,1.5,1.6c0.4,1.2,0.7,2,1,2.3l-1.2,0.1c-0.2-0.2-0.5-1-0.8-2c-0.4-1.2-0.9-1.6-2-1.5l-1.1,0.1l0.5,3.8
				l-1.1,0.1L215.9,215.1z M217.5,218.9l1.1-0.1c1.2-0.1,1.9-0.9,1.8-1.9c-0.1-1.1-1-1.5-2.2-1.4c-0.5,0.1-0.9,0.2-1.1,0.2
				L217.5,218.9z"/>
			<path class="st5" d="M230.8,217.5c0.4,3-1.3,4.8-3.5,5.1c-2.3,0.3-4.1-1.3-4.5-3.9c-0.3-2.8,1.1-4.8,3.5-5.1
				C228.8,213.3,230.5,214.9,230.8,217.5z M224.1,218.5c0.2,1.9,1.4,3.4,3.2,3.2c1.8-0.2,2.6-2,2.3-4c-0.2-1.7-1.3-3.4-3.2-3.2
				C224.6,214.7,223.9,216.5,224.1,218.5z"/>
			<path class="st5" d="M234.3,221.6l-3.3-8.4l1.2-0.1l1.6,4.3c0.4,1.1,0.8,2.1,1,2.9l0,0c0-0.9,0.2-1.9,0.3-3.1l0.6-4.5l1.2-0.1
				l1.6,4.3c0.4,1,0.7,2,1,2.9l0,0c0.1-1,0.2-2,0.3-3.1l0.6-4.5l1.1-0.1l-1.4,9L239,221l-1.7-4.4c-0.4-1.1-0.7-1.9-0.9-2.8l0,0
				c0,0.9-0.1,1.8-0.3,2.9l-0.7,4.7L234.3,221.6z"/>
			<path class="st5" d="M246.5,220l-1.1-8.7l1.2-0.2l3.3,4.1c0.8,0.9,1.4,1.8,1.9,2.6l0,0c-0.2-1.1-0.4-2.2-0.6-3.6l-0.5-3.6
				l1.1-0.1l1.1,8.7l-1.1,0.1l-3.3-4.1c-0.7-0.9-1.4-1.8-2-2.7l0,0c0.2,1.1,0.4,2.1,0.5,3.6l0.5,3.7L246.5,220z"/>
			<path class="st5" d="M255.7,210.1l1.1-0.1l0.7,5.8c0.3,2.3-0.8,3.2-2.3,3.3c-0.4,0.1-0.9,0-1.2-0.1l0.1-0.9c0.2,0.1,0.6,0.1,1,0
				c1-0.1,1.5-0.6,1.3-2.4L255.7,210.1z"/>
			<path class="st5" d="M205.8,233l-2.6,0.3l-0.1-1l6.4-0.8l0.1,1l-2.7,0.3l1,7.7l-1.1,0.1L205.8,233z"/>
			<path class="st5" d="M211.6,237.3l-0.6,2.8l-1.2,0.1l1.9-9.1l1.4-0.2l4,8.3l-1.2,0.1l-1.3-2.6L211.6,237.3z M214.3,236.1
				l-1.2-2.4c-0.3-0.5-0.5-1-0.6-1.5l0,0c-0.1,0.5-0.1,1.1-0.2,1.6l-0.5,2.6L214.3,236.1z"/>
			<path class="st5" d="M223,238.7l-1.3-1.8c-0.5-0.7-0.9-1.1-1.2-1.6l0,0c-0.2,0.5-0.4,1-0.7,1.8l-0.8,2l-1.3,0.2l2.1-4.7l-3.1-4
				l1.3-0.2l1.4,1.9c0.4,0.5,0.7,0.9,1,1.4l0,0c0.2-0.5,0.4-1,0.6-1.6l0.9-2.2l1.3-0.2l-2.1,4.6l3.3,4.1L223,238.7z"/>
			<path class="st5" d="M234.4,237c-0.4,0.3-1.2,0.6-2.2,0.7c-2.5,0.3-4.5-1-4.8-3.9c-0.3-2.7,1.3-4.8,4-5.1c1.1-0.1,1.8,0,2.1,0.1
				l-0.2,1c-0.5-0.2-1.1-0.2-1.8-0.1c-2,0.3-3.2,1.7-2.9,4c0.3,2.1,1.7,3.3,3.8,3.1c0.7-0.1,1.4-0.3,1.8-0.6L234.4,237z"/>
			<path class="st5" d="M234.7,228.5c0.6-0.2,1.4-0.4,2.1-0.4c1.2-0.1,2,0,2.6,0.4c0.5,0.3,0.8,0.9,0.9,1.6c0.1,1.1-0.5,2-1.4,2.4
				l0,0c0.7,0.1,1.2,0.7,1.5,1.6c0.4,1.2,0.7,2,1,2.3l-1.2,0.1c-0.2-0.2-0.5-1-0.8-2c-0.4-1.2-0.9-1.6-2-1.5l-1.1,0.1l0.5,3.8
				l-1.1,0.1L234.7,228.5z M236.4,232.3l1.1-0.1c1.2-0.1,1.9-0.9,1.8-1.9c-0.1-1.1-1-1.5-2.2-1.4c-0.5,0.1-0.9,0.2-1.1,0.2
				L236.4,232.3z"/>
			<path class="st5" d="M246.7,231.6l-3.4,0.4l0.4,3.1l3.8-0.5l0.1,0.9l-4.9,0.6l-1.1-8.7l4.7-0.6l0.1,0.9l-3.6,0.4l0.3,2.7l3.4-0.4
				L246.7,231.6z"/>
			<path class="st5" d="M248,226.9c0.7-0.2,1.5-0.4,2.4-0.5c1.6-0.2,2.8,0,3.7,0.6c0.9,0.6,1.4,1.6,1.6,3c0.2,1.4-0.1,2.6-0.8,3.5
				c-0.7,0.9-2,1.5-3.7,1.7c-0.8,0.1-1.5,0.1-2.1,0.1L248,226.9z M250.1,234.4c0.3,0,0.7,0,1.1-0.1c2.4-0.3,3.5-1.8,3.2-4.1
				c-0.2-2.1-1.6-3.2-3.9-2.9c-0.6,0.1-1,0.2-1.3,0.3L250.1,234.4z"/>
			<path class="st5" d="M257.7,225.5l1.1,8.7l-1.1,0.1l-1.1-8.7L257.7,225.5z"/>
			<path class="st5" d="M261.5,226l-2.6,0.3l-0.1-1l6.4-0.8l0.1,1l-2.7,0.3l1,7.7l-1.1,0.1L261.5,226z"/>
			<path class="st5" d="M195.9,248.9l1.1,8.7l-1.1,0.1l-1.1-8.7L195.9,248.9z"/>
			<path class="st5" d="M199,257.4l-1.1-8.7l1.2-0.2l3.3,4.1c0.8,0.9,1.4,1.8,1.9,2.6l0,0c-0.2-1.1-0.4-2.2-0.6-3.6l-0.5-3.6
				l1.1-0.1l1.1,8.7l-1.1,0.1l-3.3-4.1c-0.7-0.9-1.4-1.8-2-2.7l0,0c0.2,1.1,0.4,2.1,0.5,3.6l0.5,3.7L199,257.4z"/>
			<path class="st5" d="M213.5,255.3c-0.4,0.3-1.2,0.6-2.2,0.7c-2.5,0.3-4.5-1-4.8-3.9c-0.3-2.7,1.3-4.8,4-5.1
				c1.1-0.1,1.8,0,2.1,0.1l-0.2,1c-0.5-0.2-1.1-0.2-1.8-0.1c-2,0.3-3.2,1.7-2.9,4c0.3,2.1,1.7,3.3,3.8,3.1c0.7-0.1,1.4-0.3,1.8-0.6
				L213.5,255.3z"/>
			<path class="st5" d="M218.9,250.8l-3.4,0.4l0.4,3.1l3.8-0.5l0.1,0.9l-4.9,0.6l-1.1-8.7l4.7-0.6l0.1,0.9l-3.6,0.4l0.3,2.7l3.4-0.4
				L218.9,250.8z"/>
			<path class="st5" d="M221.3,254.6l-1.1-8.7l1.2-0.2l3.3,4.1c0.8,0.9,1.4,1.8,1.9,2.6l0,0c-0.2-1.1-0.4-2.2-0.6-3.6l-0.5-3.6
				l1.1-0.1l1.1,8.7l-1.1,0.1l-3.3-4.1c-0.7-0.9-1.4-1.8-2-2.7l0,0c0.2,1.1,0.4,2.1,0.5,3.6l0.5,3.7L221.3,254.6z"/>
			<path class="st5" d="M230.5,245.6l-2.6,0.3l-0.1-1l6.4-0.8l0.1,1l-2.7,0.3l1,7.7l-1.1,0.1L230.5,245.6z"/>
			<path class="st5" d="M236.2,243.9l1.1,8.7l-1.1,0.1l-1.1-8.7L236.2,243.9z"/>
			<path class="st5" d="M241.2,252.1l-3.9-8.3l1.2-0.2l1.9,4.1c0.5,1.1,1,2.1,1.3,3.1l0,0c0.1-1,0.3-2.2,0.6-3.4l0.9-4.5l1.2-0.1
				l-2,9.1L241.2,252.1z"/>
			<path class="st5" d="M250.5,246.8l-3.4,0.4l0.4,3.1l3.8-0.5l0.1,0.9l-4.9,0.6l-1.1-8.7l4.7-0.6l0.1,0.9l-3.6,0.4l0.3,2.7l3.4-0.4
				L250.5,246.8z"/>
			<path class="st5" d="M255.6,241.5l0.6,5.1c0.2,1.9,1.2,2.7,2.4,2.5c1.3-0.2,2-1.1,1.8-3l-0.6-5.1l1.1-0.1l0.6,5.1
				c0.3,2.7-0.9,3.9-2.8,4.2c-1.8,0.2-3.2-0.6-3.6-3.3l-0.6-5.1L255.6,241.5z"/>
			<path class="st5" d="M263.6,248c0.5,0.2,1.3,0.4,2.1,0.3c1.1-0.1,1.7-0.8,1.6-1.7c-0.1-0.8-0.6-1.2-1.9-1.5
				c-1.5-0.3-2.5-1-2.6-2.2c-0.2-1.4,0.8-2.5,2.5-2.7c0.9-0.1,1.6,0,2,0.2l-0.2,1c-0.3-0.1-0.9-0.3-1.7-0.2
				c-1.2,0.1-1.6,0.9-1.5,1.5c0.1,0.8,0.7,1.1,1.9,1.5c1.5,0.4,2.4,1,2.5,2.3c0.2,1.3-0.7,2.6-2.7,2.9c-0.8,0.1-1.8,0-2.3-0.3
				L263.6,248z"/>
			<path class="st5" d="M274.2,243.9l-3.4,0.4l0.4,3.1l3.8-0.5l0.1,0.9l-4.9,0.6l-1.1-8.7l4.7-0.6l0.1,0.9l-3.6,0.4l0.3,2.7l3.4-0.4
				L274.2,243.9z"/>
			<path class="st5" d="M276.3,246.4c0.5,0.2,1.3,0.4,2.1,0.3c1.1-0.1,1.7-0.8,1.6-1.7c-0.1-0.8-0.6-1.2-1.9-1.5
				c-1.5-0.3-2.5-1-2.6-2.2c-0.2-1.4,0.8-2.5,2.5-2.7c0.9-0.1,1.6,0,2,0.2l-0.2,1c-0.3-0.1-0.9-0.3-1.7-0.2
				c-1.2,0.1-1.6,0.9-1.5,1.5c0.1,0.8,0.7,1.1,1.9,1.5c1.5,0.4,2.4,1,2.5,2.3c0.2,1.3-0.7,2.6-2.7,2.9c-0.8,0.1-1.8,0-2.3-0.3
				L276.3,246.4z"/>
		</g>
	</g>
	<polygon class="st0" points="198.5,196.3 214.2,168.6 220,171.8 206.5,195.6 	"/>
	<polygon class="st0" points="247.6,190.3 225.8,171.6 230.2,166.6 256.3,189.1 	"/>
	<circle class="st2" cx="221.5" cy="162.7" r="4.4"/>
</g>
<circle class="st6" cx="113.2" cy="132.7" r="29.6"/>
<circle class="st6" cx="287.7" cy="88.3" r="29.6"/>
<circle class="st6" cx="383.4" cy="220.5" r="29.6"/>
<circle class="st6" cx="302" cy="333.2" r="29.6"/>
<circle class="st6" cx="105.4" cy="292.3" r="29.6"/>
<path class="st0" d="M161.6,124l-32.1-8.9c-2.4-0.7-5.2-3.1-4.5-5.1l-36.6,18.4l0,0c-0.5,0.2-1.1,0.5-1.5,0.8
	c-3.9,2.6-3.1,9.5,4.4,13.5l42.9,23c5.1,2.8,12,3.5,15.1,2.2c1.8-1.8,5-5.1,7.6-11.3l8.5-20c1.5-3.9,4.2-9.6,4.2-12.7
	C167.5,125,166.5,125.4,161.6,124z M91.3,128.2l30.3-15.2l-25.3,21.6C96.8,131.2,94.3,128.7,91.3,128.2z M145.2,157.6l-12.3-5.1
	l2.1-2.5l9.4,3.8l6.8-8.9l-10.6-3.6l2.1-2.3l10.4,3.6l7.7-10.1l-19.6-5.8l-4.6,4.9l-3.1-1l4.5-4.8l-15.5-4.6l-9.6,7.6l21.8,7.5
	l-2.1,2.4l-8.2-3l-7.4,7.4l10.2,4.1l-2.2,2.2l-12.9-5.5l9.3-9.3l-14.5-5l14.9-11.4l43.3,12.8L145.2,157.6z"/>
<g>
	<polygon class="st5" points="280.3,62.1 295.1,62.7 295.1,64.3 280.3,63.7 	"/>
	<polygon class="st5" points="269.8,62 278.8,59.9 278.8,60.7 269.8,62.7 	"/>
	<polygon class="st5" points="268.3,64.3 278.8,62.2 278.8,63.8 268.3,65.7 	"/>
	<polygon class="st5" points="280.3,59.7 292.7,60.4 292.7,61.1 280.3,60.6 	"/>
	<polygon class="st5" points="297,67.2 282.2,66.7 282.2,69.5 280.3,69.5 280.3,65.2 298.5,65.9 298.5,69.8 297,69.8 	"/>
	<path class="st5" d="M302,71.3v49.4l-6.1,1.1v-3.3l-1.9,0.3v3l-0.5,0.1v-3l-2.1,0.4v3l-0.5,0.1v-3l-2,0.4v3.3l-8.7,1.5l0-53.5
		L302,71.3z M282.3,119l18.2-2.8v-2.5l-18.2,2.8V119z M282.3,114.2l18.2-2.5v-2.5l-18.2,2.5V114.2z M282.3,109.4l18.2-2.2v-2.5
		l-18.2,2.1V109.4z M282.3,104.7l18.2-1.9v-2.5l-18.2,1.8V104.7z M282.3,99.9l18.2-1.6v-2.5l-18.2,1.5V99.9z M282.3,95.2l18.2-1.3
		v-2.5l-18.2,1.2V95.2z M282.3,90.4l18.2-1v-2.5l-18.2,0.9V90.4z M282.3,85.6l18.2-0.7v-2.5l-18.2,0.6V85.6z M282.3,80.9l18.2-0.4
		V78l-18.2,0.3V80.9z M282.3,76.1l18.2-0.1v-2.4l-18.2,0V76.1z"/>
	<path class="st5" d="M281,49.8c0.4,0,0.7,0.3,0.7,0.7v8l-1.5-0.1v-8C280.2,50.1,280.5,49.8,281,49.8z"/>
	<path class="st0" d="M255.2,86v40.2l-8.8-6.7V85.2L255.2,86z M252.5,119.7l1.7,1.1v-2.6l-1.7-1V119.7z M252.5,115.5l1.7,1v-2.6
		l-1.7-0.9V115.5z M252.5,111.3l1.7,0.9v-2.6l-1.7-0.8V111.3z M252.5,107.1l1.7,0.7v-2.6l-1.7-0.7V107.1z M252.5,102.9l1.7,0.6V101
		l-1.7-0.6V102.9z M252.5,98.7l1.7,0.5v-2.6l-1.7-0.4V98.7z M252.5,94.6l1.7,0.4v-2.6l-1.7-0.3V94.6z M252.5,90.4l1.7,0.3v-2.6
		l-1.7-0.2V90.4z M250.6,118.4l1.4,0.9v-2.5l-1.4-0.9V118.4z M250.6,114.4l1.4,0.8v-2.5l-1.4-0.8V114.4z M250.6,110.3l1.4,0.7v-2.5
		l-1.4-0.7V110.3z M250.6,106.3l1.4,0.6v-2.5l-1.4-0.6V106.3z M250.6,102.2l1.4,0.5v-2.5l-1.4-0.5V102.2z M250.6,98.2l1.4,0.4v-2.5
		l-1.4-0.4V98.2z M250.6,94.1l1.4,0.3V92l-1.4-0.3V94.1z M250.6,90.1l1.4,0.2v-2.5l-1.4-0.2V90.1z M248.8,117.2l1.3,0.9v-2.4
		l-1.3-0.8V117.2z M248.8,113.3l1.3,0.8v-2.4l-1.3-0.7V113.3z M248.8,109.4l1.3,0.7v-2.4l-1.3-0.6V109.4z M248.8,105.4l1.3,0.6v-2.4
		l-1.3-0.5V105.4z M248.8,101.5l1.3,0.5v-2.4l-1.3-0.4V101.5z M248.8,97.6l1.3,0.4v-2.4l-1.3-0.4V97.6z M248.8,93.7l1.3,0.3v-2.4
		l-1.3-0.3V93.7z M248.8,89.8l1.3,0.2v-2.4l-1.3-0.2V89.8z M247.2,116.2l1.1,0.7v-2.3l-1.1-0.7V116.2z M247.2,112.4l1.1,0.6v-2.3
		l-1.1-0.6V112.4z M247.2,108.5l1.1,0.6v-2.3l-1.1-0.5V108.5z M247.2,104.7l1.1,0.5v-2.3l-1.1-0.4V104.7z M247.2,100.9l1.1,0.4V99
		l-1.1-0.4V100.9z M247.2,97.1l1.1,0.3v-2.3l-1.1-0.3V97.1z M247.2,93.3l1.1,0.3v-2.3l-1.1-0.2V93.3z M247.2,89.5l1.1,0.2v-2.3
		l-1.1-0.1V89.5z"/>
	<path class="st0" d="M275,123.6l-7.2,1.3v-3.1l-2.8,0.5v3.1l-8.2,1.5V86l18.3-0.8V123.6z M261.6,88l-3.6,0.2v2.7l3.6-0.2V88z
		 M261.6,92.3l-3.6,0.3v2.7l3.6-0.3V92.3z M261.6,96.7L258,97v2.7l3.6-0.3V96.7z M261.6,101l-3.6,0.4v2.7l3.6-0.4V101z M261.6,105.3
		l-3.6,0.4v2.7l3.6-0.4V105.3z M261.6,109.7l-3.6,0.5v2.7l3.6-0.5V109.7z M261.6,114l-3.6,0.5v2.7l3.6-0.5V114z M261.6,118.3
		l-3.6,0.6v2.7l3.6-0.6V118.3z M265.9,87.7l-3.6,0.2v2.7l3.6-0.2V87.7z M265.9,92l-3.6,0.3v2.7l3.6-0.3V92z M265.9,96.3l-3.6,0.3
		v2.7l3.6-0.3V96.3z M265.9,100.5l-3.6,0.4v2.7l3.6-0.4V100.5z M265.9,104.8l-3.6,0.4v2.7l3.6-0.4V104.8z M265.9,109.1l-3.6,0.5v2.7
		l3.6-0.5V109.1z M265.9,113.4l-3.6,0.5v2.7l3.6-0.5V113.4z M265.9,117.6l-3.6,0.6v2.6l3.6-0.6V117.6z M270,87.5l-3.2,0.2v2.6
		l3.2-0.2V87.5z M270,91.7l-3.2,0.2v2.6l3.2-0.2V91.7z M270,95.9l-3.2,0.3v2.6l3.2-0.3V95.9z M270,100.1l-3.2,0.3v2.6l3.2-0.3V100.1
		z M270,104.3l-3.2,0.4v2.6l3.2-0.4V104.3z M270,108.6l-3.2,0.4v2.6l3.2-0.4V108.6z M270,112.8l-3.2,0.5v2.6l3.2-0.5V112.8z
		 M270,117l-3.2,0.5v2.6l3.2-0.5V117z M273.8,87.3l-3.1,0.2v2.6l3.1-0.2V87.3z M273.8,91.4l-3.1,0.2v2.6l3.1-0.2V91.4z M273.8,95.6
		l-3.1,0.3v2.6l3.1-0.3V95.6z M273.8,99.7l-3.1,0.3v2.6l3.1-0.3V99.7z M273.8,103.9l-3.1,0.4v2.6l3.1-0.4V103.9z M273.8,108
		l-3.1,0.4v2.6l3.1-0.4V108z M273.8,112.2l-3.1,0.5v2.6l3.1-0.5V112.2z M273.8,116.4l-3.1,0.5v2.6l3.1-0.5V116.4z"/>
	<path class="st5" d="M264.3,72.6l14.5-1.5v53.1l-2.3-1.2V83.1l-12.2-0.2V72.6z M265.6,81l10.8,0v-2.4l-10.8,0.3V81z M265.6,76.9
		l10.8-0.5v-2.5l-10.8,0.8V76.9z"/>
	<polygon class="st5" points="278.8,69.6 276.9,69.8 276.9,67 267.4,68.5 267.4,70.8 266.2,70.9 266.2,67.6 278.8,65.3 278.8,69.5 
		278.8,69.5 	"/>
</g>
<g>
	<path class="st0" d="M353,194.7c-10.6,5.1-17.3,16.4-17.9,27.4c-1.7-0.7-2.7-1.6-2.7-2.6C335.1,206.8,343.6,198.2,353,194.7z"/>
	<path class="st0" d="M347.2,229.5c-4,0.2-10.2-1.1-12.4-2.8l0.1-1.2c-2.4-1.1-3.8-2.7-3.4-4.7c-0.7,0.5-1.5,1.5-1.8,3.2
		c-0.5,2.9-4.2,3.2-3.4,5.8c1.3,4,16.9,7.4,28.6,6.1c9.2-1,14.6-1.9,22.1-3.2c21.9-3.7,22.9-6.4,22.9-8.7c0-0.8-1-1.6-2.3-2.5
		c0,0.4,0,0.8,0,1.1c0,5.7-30.4,7.8-48.3,6.2L347.2,229.5z"/>
	<g>
		<path class="st5" d="M380.4,194.9c-2.7-1.7-9.4-3.2-13.4-3.2c-16.2,0-30.5,17.4-30.5,33.3c1.3,0.9,7.2,2.1,10.5,2.1
			C347,203.3,367.9,188.6,380.4,194.9z"/>
		<path class="st5" d="M390.6,204.9c-0.9-0.5-2.4-1.9-5.8-1.2c-8.6,1.6-15.7,7.7-19.5,15.2c2.2-10.3,9.9-16.9,17.5-17.7
			c2-0.2,4.1-0.1,5.7,0.7c-2.1-1.8-5.4-4.2-7.5-5.4c-11.2-5.8-30.1,6.6-30.1,29.8c18.8,1.8,46,0.4,46-4.1
			C395.9,215.6,395.1,208.7,390.6,204.9z"/>
	</g>
</g>
<g>
	<path class="st0" d="M253,350.4l13.8,2.8v-10.5l-13.8-2V350.4z"/>
	<polygon class="st0" points="268.3,328 268.3,336.6 281.2,338.1 281.2,328.9 	"/>
	<polygon class="st0" points="281,317 281,325.2 292.4,325.8 292.4,317.2 	"/>
	<polygon class="st0" points="291.9,307.5 291.9,315.2 302.8,315.2 302.8,307.3 	"/>
	<polygon class="st0" points="303,299.3 303,305.8 312.4,305.9 312.4,298.7 	"/>
	<path class="st5" d="M305.8,307.3v7.9l15.5-0.8l0,0v-6.8h0L305.8,307.3z M313.5,316.4l-17.9,0.9v8.6l17.9-2.2V316.4z M284.1,338.3
		l20.1-3.9v-8l-20.1,2.4V338.3z M294.1,337.9l-24,4.7l-0.1,0v10.5l24.1-6.5V337.9z M315.1,323.5l6.1-0.7l0.1,0V316l-6.2,0.3V323.5z
		 M315.1,341l6-1.6l0.2-0.1v-6.7l-6.2,1.2V341z M321.2,299.4l-6.2-0.6v7.2l6.2,0.2L321.2,299.4L321.2,299.4z M305.8,334.1l15.4-3
		l0.1,0v-6.7l-15.5,1.9V334.1z M295.7,346.2l17.9-4.8v-7.3l-17.9,3.5V346.2z"/>
</g>
<path class="st7" d="M11.4,126.8"/>
<g>
	<g>
		<path class="st0" d="M105.5,302.7c-0.6,3.3-2.2,5.8-4.3,6.5l4.3-1.2c1.8-0.5,3.3-2.2,4.1-4.5L105.5,302.7z"/>
		<path class="st0" d="M146,306.6c0.9,0.4,1.9,0.5,2.9,0.4c1.9-0.2,3.5-1.5,4.6-3.3L146,306.6z"/>
		<path class="st0" d="M155.1,303.2c-0.7,1.8-1.9,3.1-3.3,3.7l4.6-1.9c1.3-0.5,2.3-1.8,3-3.4L155.1,303.2z"/>
		<path class="st0" d="M135,308.1c-0.7,4.1-2.7,7.2-5.3,8.2l6.1-2.5c1.8-0.8,3.2-2.5,4.2-4.8L135,308.1z"/>
		<path class="st5" d="M134.3,266l-11.3,0.9l-3.8,14.8v4.9l5,0l0,0c4.3-0.2,8.4,4.2,10.2,10.4l3.4,0.4v-17.3L134.3,266z
			 M126.5,279.3v-11.1l6.5-0.4l2.9,11.4H126.5z"/>
		<path class="st5" d="M134.7,298.4c0.2,0.9,0.4,1.8,0.5,2.7c0.2,1.7,0.2,3.4,0.1,5l4.7,0.9v-7.8L134.7,298.4z"/>
		<path class="st0" d="M104,297c-0.8-6-4.5-10.5-8.2-10.1c-3.7,0.5-6.1,5.8-5.3,11.8c0.8,6,4.5,10.5,8.2,10.1
			C102.4,308.3,104.8,303,104,297z M97.5,302.9c-1.7,0.2-3.3-1.8-3.7-4.6c-0.4-2.7,0.7-5.1,2.4-5.4c1.7-0.2,3.4,1.8,3.7,4.6
			C100.3,300.3,99.2,302.7,97.5,302.9z"/>
		<path class="st0" d="M133.1,301.5c-0.9-7.5-5.5-13.2-10.1-12.6c-4.6,0.6-7.6,7.2-6.7,14.7c0.9,7.5,5.5,13.2,10.1,12.6
			C131,315.7,134,309.1,133.1,301.5z M124.9,309c-2.2,0.3-4.3-2.4-4.7-5.9c-0.4-3.5,1-6.6,3.1-6.8c2.2-0.3,4.3,2.4,4.7,5.9
			C128.5,305.7,127.1,308.8,124.9,309z"/>
		<polygon class="st0" points="115.3,303.6 105.4,301.6 105.4,292.2 115.3,293.2 		"/>
		<polygon class="st5" points="162.6,293.6 141.1,299.1 141.1,306.9 162.6,299.3 		"/>
		<path class="st5" d="M138.8,280.5v17.1l21.8-5.2v-12.5L138.8,280.5z M142.1,291.7c-1,0-1.8-1.1-1.8-2.4c0-1.3,0.8-2.4,1.8-2.4
			c1,0,1.8,1.1,1.8,2.4C143.9,290.6,143.1,291.7,142.1,291.7z M156.2,291.2l-10.3,2V292l10.3-2V291.2z M156.2,289.2l-10.3,1.7v-1.2
			l10.3-1.6V289.2z M156.2,287.2l-10.3,1.4v-1.2l10.3-1.3V287.2z M156.2,285.1l-10.3,1v-1.2l10.3-1V285.1z M156.2,283.1l-10.3,0.7
			v-1.2l10.3-0.6V283.1z M158.3,288.9c-0.8,0-1.4-0.9-1.4-1.9c0-1.1,0.6-1.9,1.4-1.9c0.8,0,1.4,0.9,1.4,1.9
			C159.7,288.1,159.1,288.9,158.3,288.9z"/>
		<path class="st5" d="M155.5,268.5l-20.1-2.5l3.4,13.5l21.8-0.4L155.5,268.5z M137.3,267.5l17.4,1.8l4.2,8.9l-18.7,0.2L137.3,267.5
			z"/>
	</g>
	<path class="st0" d="M131.2,259.1L131.2,259.1l-13.8,1.2L83,266.9v23.4l5.6,4.4c0,0,0.5-5.5,1.7-7c1.2-1.4,4.2-4,7.6-3.3
		c3,0.6,5,3.8,6.2,5.2c2.3,0.3,10.9,1.5,10.9,1.5l1-12.8l4.6-15.6l10.6-1v0.1l21.6,3.1v-2.3L131.2,259.1z"/>
</g>
</svg>
