<svg id="Layer_1" data-name="Layer 1" xmlns="http://www.w3.org/2000/svg" xmlns:xlink="http://www.w3.org/1999/xlink" viewBox="0 0 126.46 46.56"><defs><clipPath id="clip-path" transform="translate(0 0)"><rect width="126.46" height="46.56" style="fill:none"/></clipPath></defs><title>liberty</title><rect x="3.7" y="6.99" width="39.57" height="33.51" style="fill:#fff"/><g style="clip-path:url(#clip-path)"><path d="M39.19,30.56h-.52v-.47c0-1.61-.7-2.08-2.26-2.08h-.57v7.66c0,.41,0,.82.74.82h1v.37c-.73,0-1.59,0-2.45,0s-1.73,0-2.6,0v-.37h1.18a.6.6,0,0,0,.53-.21,5.33,5.33,0,0,0,.18-1.5V28h-.55c-1.58,0-2.28.47-2.28,2.08v.47h-.52A24.47,24.47,0,0,0,31,27.63c1.38,0,2.77,0,4.13,0s2.77,0,4.13,0a25.29,25.29,0,0,0-.09,2.93m-8.35-7.07h8.41v.72H30.84ZM17.41,36.71l0-1c6.31-.08,7.85-1.22,7.89-8h1.36c0,3.67,0,5.73.22,9.12-2.87-.11-6.28-.12-9.49-.12m-4-21.17V33.28a5.29,5.29,0,0,0,0,.73l0,2.71c-2.71,0-5.51.05-7.69.11V35.77c3.34,0,3.65,0,3.65-4.46V13.89c0-2.21-.61-2.21-3.65-2.21V10.61c2.24,0,4,.12,6.42.12,3.74,0,4.7,0,6.6-.12v1.07H16.31c-2.55,0-2.86.4-2.86,3.87m17.48,4.11c1.15,0,1.36,0,1.36-1V12c0-.88-.25-1.06-.88-1.06h-.49v-.39l2.26,0,2.34,0c1.62,0,3.58.26,3.58,2.28s-2,2.71-3.74,2.86v-.4a2.34,2.34,0,0,0,2.2-2.39c0-1.46-1.3-2-2.95-2,0,0-.55,0-.93,0v7.73c0,.8.19,1,.93,1h1.13V20c-.57,0-1.32,0-2.16,0-1.41,0-1.93,0-2.65,0ZM0,46.56H46.56V0H0Z" transform="translate(0 0)" style="fill:#231f20"/></g><rect x="61.93" y="7.23" width="1.01" height="8.08" style="fill:#231f20"/><g style="clip-path:url(#clip-path)"><path d="M68.5,11.62v2.8h2.23c.82,0,1.46-.39,1.46-1.31a1.35,1.35,0,0,0-1.47-1.49Zm3.29-2.25a1.21,1.21,0,0,0-1.34-1.24H68.5V10.8h2a1.35,1.35,0,0,0,1.25-1.43m1.46,3.74c0,1.55-1,2.21-2.52,2.21H67.49V7.23h3.37a2,2,0,0,1,2,2.13,2,2,0,0,1-1.08,1.82,1.86,1.86,0,0,1,1.49,1.92" transform="translate(0 0)" style="fill:#231f20"/><path d="M78.31,13.62c0,.42.19.8.93.8h3v.89H79.06c-1.2,0-1.74-.39-1.76-1.54V7.23h4.92v.89H78.31v2.57h3.64v.89H78.31Z" transform="translate(0 0)" style="fill:#231f20"/><path d="M89.59,11.11c.62,0,1.25-.33,1.25-1.56a1.32,1.32,0,0,0-1.43-1.42H87.34v3Zm1.49,4.2a29.47,29.47,0,0,0-1.69-2.56c-.42-.6-.59-.79-1-.79h-1v3.34h-1V7.23h3.18a2.17,2.17,0,0,1,2.32,2.32,2.12,2.12,0,0,1-1.7,2.33,1.5,1.5,0,0,1-.33,0,16.12,16.12,0,0,1,2.42,3.39Z" transform="translate(0 0)" style="fill:#231f20"/></g><polygon points="97.6 15.31 97.6 8.12 95.05 8.12 95.05 7.23 101.14 7.23 101.14 8.12 98.61 8.12 98.61 15.31 97.6 15.31" style="fill:#231f20"/><polygon points="107.56 15.31 106.55 15.31 106.55 11.83 103.89 7.23 105.07 7.23 107.05 10.84 109.02 7.23 110.2 7.23 107.56 11.82 107.56 15.31" style="fill:#231f20"/><g style="clip-path:url(#clip-path)"><path d="M56.58,23.58c.41,0,1.23-.33,1.23-1.56a1.37,1.37,0,0,0-1.2-1.42H54.28v3Zm-2.3.9v3.3h-1V19.69h3.34A2.27,2.27,0,0,1,58.81,22a2.19,2.19,0,0,1-2.24,2.46Z" transform="translate(0 0)" style="fill:#231f20"/><path d="M66,23.58c.62,0,1.26-.33,1.26-1.56a1.32,1.32,0,0,0-1.43-1.42H63.72v3Zm1.49,4.2a29.9,29.9,0,0,0-1.69-2.56c-.42-.6-.59-.79-1-.79h-1v3.34h-1V19.69h3.18A2.17,2.17,0,0,1,68.21,22a2.12,2.12,0,0,1-1.7,2.33,1.5,1.5,0,0,1-.33,0,16.11,16.11,0,0,1,2.42,3.39Z" transform="translate(0 0)" style="fill:#231f20"/><path d="M79.08,23.76a3.07,3.07,0,1,0-6.12,0,3.07,3.07,0,1,0,6.12,0m-3,4.14A3.86,3.86,0,0,1,72,23.76a4.06,4.06,0,1,1,8.12,0A3.86,3.86,0,0,1,76,27.91Z" transform="translate(0 0)" style="fill:#231f20"/><path d="M87.48,23.58c.41,0,1.23-.33,1.23-1.56a1.37,1.37,0,0,0-1.2-1.42H85.19v3Zm-2.3.9v3.3h-1V19.69h3.34A2.27,2.27,0,0,1,89.71,22a2.19,2.19,0,0,1-2.24,2.46Z" transform="translate(0 0)" style="fill:#231f20"/><path d="M94.57,26.09c0,.42.19.8.93.8h3v.89H95.32c-1.2,0-1.74-.39-1.76-1.54V19.69h4.92v.89H94.57v2.57h3.64V24H94.57Z" transform="translate(0 0)" style="fill:#231f20"/><path d="M105.84,23.58c.62,0,1.25-.33,1.25-1.56a1.32,1.32,0,0,0-1.43-1.42H103.6v3Zm1.49,4.2a29.43,29.43,0,0,0-1.69-2.56c-.42-.6-.59-.79-1-.79h-1v3.34h-1V19.69h3.18A2.17,2.17,0,0,1,108.1,22a2.12,2.12,0,0,1-1.7,2.33,1.5,1.5,0,0,1-.33,0,16.15,16.15,0,0,1,2.42,3.39Z" transform="translate(0 0)" style="fill:#231f20"/></g><polygon points="113.86 27.78 113.86 20.59 111.31 20.59 111.31 19.69 117.4 19.69 117.4 20.59 114.86 20.59 114.86 27.78 113.86 27.78" style="fill:#231f20"/><polygon points="123.82 27.78 122.81 27.78 122.81 24.29 120.14 19.69 121.33 19.69 123.31 23.31 125.28 19.69 126.46 19.69 123.82 24.28 123.82 27.78" style="fill:#231f20"/><polygon points="54.97 40.24 54.97 33.05 52.42 33.05 52.42 32.16 58.51 32.16 58.51 33.05 55.97 33.05 55.97 40.24 54.97 40.24" style="fill:#231f20"/><g style="clip-path:url(#clip-path)"><path d="M65.45,36c.62,0,1.25-.33,1.25-1.56a1.32,1.32,0,0,0-1.43-1.42H63.21v3Zm1.49,4.2a29.71,29.71,0,0,0-1.69-2.56c-.42-.6-.59-.79-1-.79h-1v3.34h-1V32.16h3.18a2.17,2.17,0,0,1,2.32,2.32A2.12,2.12,0,0,1,66,36.82a1.49,1.49,0,0,1-.33,0,16.08,16.08,0,0,1,2.42,3.39Z" transform="translate(0 0)" style="fill:#231f20"/><path d="M71.76,36.91V32.16h1v4.52c0,2.88,1.68,2.77,2.22,2.77s2.22.11,2.22-2.77V32.16h1v4.75c0,3.31-2.26,3.46-3.21,3.46s-3.21-.15-3.21-3.46" transform="translate(0 0)" style="fill:#231f20"/><path d="M82.31,38.85a6.06,6.06,0,0,0,2.44.62c1.11,0,1.9-.32,2-1.34s-1.2-1.22-2.78-1.75a2.18,2.18,0,0,1-1.75-2.11c0-1.36,1.06-2.23,3.1-2.23a6.64,6.64,0,0,1,2.1.45v.93A5.67,5.67,0,0,0,85.26,33c-1.42,0-2,.62-2,1.37,0,0-.07.74,1,1.08l.47.16c1.77.58,3.12,1.06,3,2.64s-1.34,2.16-3,2.16a7,7,0,0,1-2.44-.55Z" transform="translate(0 0)" style="fill:#231f20"/></g><polygon points="93.44 40.24 93.44 33.05 90.9 33.05 90.9 32.16 96.99 32.16 96.99 33.05 94.45 33.05 94.45 40.24 93.44 40.24" style="fill:#231f20"/><polyline points="54.24 7.23 53.23 7.23 53.23 15.31 58.24 15.31 58.24 14.31 54.24 14.31" style="fill:#231f20"/></svg>